<svg xmlns="http://www.w3.org/2000/svg" viewBox="0 0 866 456"><defs><style>.cls-1{fill:#fff;}.cls-2{fill:#333;}.cls-3,.cls-5{fill:#e60000;}.cls-4,.cls-8{opacity:0.5;font-family:Cairo-SemiBold, Cairo SemiBold;}.cls-4{font-size:15.95px;}.cls-5{font-size:14.89px;font-family:Cairo-Bold, Cairo;font-weight:700;}.cls-6,.cls-7{fill:#d1d3d4;stroke-miterlimit:10;stroke-width:7.09px;}.cls-6{stroke:#58595b;}.cls-7{stroke:#ed1c24;}.cls-8{font-size:15.95px;}</style></defs><title>Artboard 1</title><g id="Isolation_Mode" data-name="Isolation Mode"><rect class="cls-1" x="50.13" y="264.34" width="92.1" height="33.97"/><circle class="cls-2" cx="96.19" cy="195.54" r="50.43"/><g id="Step1"><g id="Group_452" data-name="Group 452"><path id="Path_575" data-name="Path 575" class="cls-1" d="M121.25,226.83H71.12c0-2.92-.32-10.07-.32-11,0-4.87.32-10.07,3.83-13.64,1.92-2.27,4.78-3.25,7.66-4.55a25,25,0,0,1,4.15-1.3L93.15,209c0-1.3.63-7.79-.32-9.74l-.32-1.3h7l-.32,1.3c-.64,1.95,0,8.12,0,9.74l6.39-12.66a24.94,24.94,0,0,1,4.15,1.3,19.64,19.64,0,0,1,7.66,4.22c3.51,3.58,3.83,8.77,4.15,13.64C121.57,216.11,121.25,223.91,121.25,226.83Z"/><ellipse id="Ellipse_32" data-name="Ellipse 32" class="cls-1" cx="96.34" cy="180.41" rx="13.95" ry="14.18"/></g><g id="Group_621" data-name="Group 621"><rect id="Rectangle_125" data-name="Rectangle 125" class="cls-3" x="115.46" y="164.25" width="2.63" height="13.18" rx="1.31" ry="1.31"/><rect id="Rectangle_126" data-name="Rectangle 126" class="cls-3" x="110.37" y="169.34" width="13.18" height="2.63" rx="1.31" ry="1.31"/></g></g><rect class="cls-1" x="218.15" y="264.34" width="89.54" height="33.97"/><circle class="cls-2" cx="262.44" cy="195.54" r="50.43"/><g id="Step3"><path id="Path_581" data-name="Path 581" class="cls-1" d="M276.27,170.63a12.07,12.07,0,0,0-.64,24.05h.2a10.12,10.12,0,0,0,1.23.06,11.5,11.5,0,0,0,6.65-2.05,1.15,1.15,0,0,0,.31-1.6,1.14,1.14,0,0,0-1.59-.31,9.8,9.8,0,1,1,4.34-8.72,10.15,10.15,0,0,1-.51,3.75,2.21,2.21,0,0,1-4.29-.7v-7.26a1.19,1.19,0,0,0-1.17-1.18,1.17,1.17,0,0,0-1.18,1.14v.4a5.33,5.33,0,0,0-3.22-1,5.51,5.51,0,1,0,3.58,9.7,4.52,4.52,0,0,0,8.44-.26A14.42,14.42,0,0,0,289,182,12.07,12.07,0,0,0,276.27,170.63Zm0,15.49a3.43,3.43,0,1,1,3.43-3.43A3.43,3.43,0,0,1,276.24,186.12Z"/><path id="Path_580" data-name="Path 580" class="cls-1" d="M238.22,171.12l3.6,3.5a1.88,1.88,0,0,1,0,2.42l-1.76,1.67a16.34,16.34,0,0,0,3.43,5.42,15.51,15.51,0,0,0,5.44,3.42l1.67-1.67a1.78,1.78,0,0,1,2.34,0l3.6,3.58a1.71,1.71,0,0,1,0,2.42l-1.67,1.67c-6.44,6.42-27.18-14.33-20.74-20.75l1.67-1.67A1.72,1.72,0,0,1,238.22,171.12Z"/><path id="Path_586" data-name="Path 586" class="cls-1" d="M296.13,203.51,287.39,197a3.52,3.52,0,0,0-4,0l-8.75,6.54a3.56,3.56,0,0,0-1.29,2.61v11.59a2.79,2.79,0,0,0,.66,1.8.62.62,0,0,0,.28.28,2.62,2.62,0,0,0,1.74.67h18.78a2.62,2.62,0,0,0,1.74-.67.63.63,0,0,0,.28-.28,2.8,2.8,0,0,0,.66-1.8V206.12A3.56,3.56,0,0,0,296.13,203.51Zm-20.79,1.07,8.75-6.54a2.3,2.3,0,0,1,2.53,0l8.75,6.54a1.33,1.33,0,0,1,.21.21l-7.77,6.52-.48-.41a3.19,3.19,0,0,0-4,0l-.48.41-7.76-6.52a1.36,1.36,0,0,1,.21-.21Zm-.76,13.13V206l7.3,6.12-7.2,6.05a1.45,1.45,0,0,1-.09-.51Zm20.17,1.43H276a1.32,1.32,0,0,1-.31,0l8.54-7.16a1.92,1.92,0,0,1,2.34,0l8.54,7.16a1.34,1.34,0,0,1-.32,0Zm1.39-1.43a1.43,1.43,0,0,1-.09.51l-7.21-6,7.3-6.12v11.66Z"/><path id="Path_530" data-name="Path 530" class="cls-1" d="M261,196.33a9.92,9.92,0,0,0-9.71,10.1c0,6.68,5.67,9.41,9.71,14,4-4.62,9.71-7.36,9.71-14A9.93,9.93,0,0,0,261,196.33Zm0,14.12a4,4,0,0,1-3.95-4,3.91,3.91,0,1,1,7.81-.4c0,.1,0,.21,0,.31v.09A4,4,0,0,1,261,210.45Z"/><g id="Group_457" data-name="Group 457"><path id="Path_109" data-name="Path 109" class="cls-1" d="M231.82,201.81a30.6,30.6,0,0,0,4.3.39v-5.87a11,11,0,0,0-2.54.39A19.25,19.25,0,0,0,231.82,201.81Z"/><path id="Path_110" data-name="Path 110" class="cls-1" d="M231.64,214.17a32.61,32.61,0,0,1,4.5-.44v-4.89h-4.94A36.71,36.71,0,0,0,231.64,214.17Z"/><path id="Path_111" data-name="Path 111" class="cls-1" d="M237,214.6v5.87a11,11,0,0,0,2.54-.39,18.64,18.64,0,0,0,1.76-5.08A40.18,40.18,0,0,0,237,214.6Z"/><path id="Path_112" data-name="Path 112" class="cls-1" d="M233.58,220.08a11,11,0,0,0,2.54.34V214.6a30.59,30.59,0,0,0-4.3.39A18.07,18.07,0,0,0,233.58,220.08Z"/><path id="Path_113" data-name="Path 113" class="cls-1" d="M230.76,202.5a21,21,0,0,1-4-1.17,12.24,12.24,0,0,0-2.3,6.64h5.77A38,38,0,0,1,230.76,202.5Z"/><path id="Path_114" data-name="Path 114" class="cls-1" d="M241.51,202.68a32.77,32.77,0,0,1-4.5.39V208H242A35.52,35.52,0,0,0,241.51,202.68Z"/><path id="Path_115" data-name="Path 115" class="cls-1" d="M231.19,208h4.94v-4.89a27,27,0,0,1-4.49-.39A35.52,35.52,0,0,0,231.19,208Z"/><path id="Path_116" data-name="Path 116" class="cls-1" d="M239.56,196.72a14.53,14.53,0,0,0-2.54-.39v5.87a24.71,24.71,0,0,0,4.3-.39A19.25,19.25,0,0,0,239.56,196.72Z"/><path id="Path_117" data-name="Path 117" class="cls-1" d="M227.58,216.31a12.11,12.11,0,0,0,4.74,3.32,20.31,20.31,0,0,1-1.32-4.4A14.84,14.84,0,0,0,227.58,216.31Z"/><path id="Path_118" data-name="Path 118" class="cls-1" d="M232.28,197.16a11.94,11.94,0,0,0-4.84,3.47,16.62,16.62,0,0,0,3.52,1A23.5,23.5,0,0,1,232.28,197.16Z"/><path id="Path_119" data-name="Path 119" class="cls-1" d="M230.32,208.82h-5.82V209a12.19,12.19,0,0,0,1.42,5.13s0,0,0,.1l.15.3s.1.15.15.2a1,1,0,0,0,.19.3c0,.1.1.15.15.24l.3.44a19.87,19.87,0,0,1,3.86-1.27A33.83,33.83,0,0,1,230.32,208.82Z"/><path id="Path_120" data-name="Path 120" class="cls-1" d="M240.87,219.64a12.47,12.47,0,0,0,4.74-3.32,16.08,16.08,0,0,0-3.37-1.07A27.61,27.61,0,0,1,240.87,219.64Z"/><path id="Path_121" data-name="Path 121" class="cls-1" d="M242.82,208.82a32.64,32.64,0,0,1-.49,5.52,17,17,0,0,1,3.86,1.27,11.84,11.84,0,0,0,2.44-6.79Z"/><path id="Path_122" data-name="Path 122" class="cls-1" d="M242,208.84H237v4.89a26.48,26.48,0,0,1,4.5.44A36.75,36.75,0,0,0,242,208.84Z"/><path id="Path_123" data-name="Path 123" class="cls-1" d="M245.7,200.63a13.17,13.17,0,0,0-4.84-3.47,23.38,23.38,0,0,1,1.37,4.5A26.75,26.75,0,0,0,245.7,200.63Z"/><path id="Path_124" data-name="Path 124" class="cls-1" d="M242.82,208h5.82v-.15a12.16,12.16,0,0,0-2.3-6.5,21,21,0,0,1-4,1.17A32.32,32.32,0,0,1,242.82,208Z"/></g><g id="Path_587" data-name="Path 587"><path class="cls-3" d="M289.36,185.11l3.51,11.57,1.67-1.67,1.51-1.51,1.51,1.51,2.68,2.68,1.69-1.69-2.68-2.68-1.51-1.51,1.51-1.51,1.68-1.68-11.57-3.51m-.84-2.42a1.6,1.6,0,0,1,.47.07l13.47,4.08a1.57,1.57,0,0,1,.66,2.62l-2.34,2.34,3,3a1.7,1.7,0,0,1,0,2.41l-2.31,2.3a1.7,1.7,0,0,1-2.41,0l-3-3-2.34,2.34a1.55,1.55,0,0,1-1.11.46,1.57,1.57,0,0,1-1.51-1.12L287,184.73A1.58,1.58,0,0,1,288.52,182.69Z"/></g></g><path class="cls-3" d="M94.13,77l-6.78,4.36-3-4.89L94.7,69.58h6v31.31H94.13Z"/><path class="cls-3" d="M247.37,95.93l6.69-6.78q2.61-2.7,3.89-4.22a12.86,12.86,0,0,0,1.87-2.8,6.47,6.47,0,0,0,.59-2.75,3.77,3.77,0,0,0-1.11-3.06,5.15,5.15,0,0,0-3.34-.93A47,47,0,0,0,249,76l-1.14.14L247.56,71a32.71,32.71,0,0,1,9.63-1.42q10,0,10,9a11.52,11.52,0,0,1-2.77,7.9,40.15,40.15,0,0,1-4.25,4.39l-5.45,4.93h13v5.69h-20.3Z"/><path class="cls-3" d="M415.63,100.54l-1.52-.38.33-5a52,52,0,0,0,8.44.9,6.81,6.81,0,0,0,4.06-1,3.4,3.4,0,0,0,1.31-2.92A3.83,3.83,0,0,0,427,89.13a4.9,4.9,0,0,0-3.32-1.07h-6.31V82.65h6.31a3.66,3.66,0,0,0,2.78-1.33,4.44,4.44,0,0,0,1.21-3.08,2.67,2.67,0,0,0-1.26-2.44,7.72,7.72,0,0,0-4-.78,45,45,0,0,0-6.45.66l-1.23.19L414.35,71a26.08,26.08,0,0,1,9.58-1.71q5.45,0,8,2t2.51,6.38a9.14,9.14,0,0,1-.88,4.25,8.56,8.56,0,0,1-2.77,3,13,13,0,0,1,2.54,1.71,4.71,4.71,0,0,1,1.28,2,10.39,10.39,0,0,1,.4,3.2q0,5-2.59,7.45t-8.23,2.42A35.15,35.15,0,0,1,415.63,100.54Z"/><path class="cls-3" d="M604,94.81H590.67v-5l7.73-21.16h7.21l-8.4,20.45H604V80.34h6.55v8.78h3v5.69h-3V100H604Z"/><path class="cls-3" d="M764.24,100.77a34.94,34.94,0,0,1-4.58-.93L758,99.42l.71-4.84a61.67,61.67,0,0,0,9.58.9A4.31,4.31,0,0,0,773,90.69q0-4.36-4-4.36a22.09,22.09,0,0,0-5.6.62l-.71.19-3.89-.9.85-16.94h19.12V75h-14L764,81.77a15.51,15.51,0,0,1,5.6-1.14q10.15,0,10.15,9.44,0,5.31-2.8,8.21t-7.92,2.89A34.18,34.18,0,0,1,764.24,100.77Z"/><g id="Layer_4" data-name="Layer 4"><text class="cls-4" transform="translate(50.9 313.36)">Be inside the <tspan x="-5.65" y="19.14">business world</tspan><tspan x="-25.05" y="38.29">Discover new brands</tspan></text></g><g id="Layer_3" data-name="Layer 3"><text class="cls-5" transform="translate(26.9 274.71)">REGISTER STANDERD<tspan x="0" y="17.87" xml:space="preserve">          ACCOUNT</tspan></text><line class="cls-6" x1="84.04" y1="123.14" x2="769.76" y2="123.14"/><circle class="cls-7" cx="92.52" cy="122.54" r="6.59"/><circle class="cls-7" cx="257.53" cy="122.54" r="6.59"/></g><text class="cls-8" transform="translate(205.82 313.07)"><tspan xml:space="preserve">  Get listed inside </tspan><tspan x="0" y="19.14" xml:space="preserve">     international</tspan><tspan x="0" y="38.28">Business Directory</tspan></text><text class="cls-5" transform="translate(205.82 274.71)"><tspan xml:space="preserve">BUILD BUSINESS  </tspan><tspan x="0" y="17.87" xml:space="preserve">        ACCOUNT</tspan></text><circle class="cls-2" cx="429.15" cy="195.54" r="50.43"/><g id="Step2"><g id="Group_454" data-name="Group 454"><g id="Group_452-2" data-name="Group 452"><path class="cls-1" d="M423.59,209.05c0,.13,0,.24,0,.34H403.93c0-.1,0-.22,0-.34,0-1.28-.12-3.64-.12-4,0-1.91.13-3.95,1.51-5.34a7.9,7.9,0,0,1,3-1.79,9.62,9.62,0,0,1,1.63-.51l2.63,5c0-.51.25-3.06-.13-3.83l-.13-.51h2.76l-.13.51a19.17,19.17,0,0,0,0,3.83l2.5-5a9.62,9.62,0,0,1,1.63.51,7.63,7.63,0,0,1,2.78,1.47l.11.1.11.09c1.38,1.4,1.51,3.44,1.63,5.34C423.71,205.17,423.6,207.74,423.59,209.05Z"/><ellipse class="cls-1" cx="413.82" cy="191.18" rx="5.47" ry="5.56"/></g><path id="Path_576" data-name="Path 576" class="cls-1" d="M434.67,186.61v1.86h1.9v-1.86Zm1.47,20-2,4.06c0-.33-.08-1.23-.09-2a1.86,1.86,0,0,1-1.14.43h-.64c0,.09,0,.17,0,.26s0,.17,0,.25c0,.49-.05.91-.05,1.08l-.84-1.58h-5.56a4.84,4.84,0,0,0-.64,1.86h7.74a3.68,3.68,0,0,0,3.71-3.62v-.59Zm-1.47-9.36v8.54a4.31,4.31,0,0,0,1.9-1.33v-5.87A4.32,4.32,0,0,0,434.67,197.22Zm-1.8-24H394.65a3.74,3.74,0,0,0-3.71,3.62v30.45a3.68,3.68,0,0,0,3.71,3.62h29.09v-1.86H394.65a1.78,1.78,0,0,1-1.8-1.77V181.52h41.83v.5h1.9v-5.19A3.73,3.73,0,0,0,432.87,173.21Zm-40,6.44v-2.82a1.84,1.84,0,0,1,1.8-1.77h38.22a1.79,1.79,0,0,1,1.8,1.77v2.82Z"/><path id="Path_577" data-name="Path 577" class="cls-3" d="M425.27,176.24a1.28,1.28,0,1,0,1.28,1.28A1.28,1.28,0,0,0,425.27,176.24Zm.4,1.28a.39.39,0,0,1-.39.4h0a.39.39,0,0,1-.4-.39h0a.4.4,0,0,1,.4-.4.39.39,0,0,1,.4.39Z"/><path id="Path_578" data-name="Path 578" class="cls-3" d="M428.68,176.24a1.28,1.28,0,1,0,1.28,1.28A1.28,1.28,0,0,0,428.68,176.24Zm.4,1.28a.4.4,0,0,1-.4.4h0a.4.4,0,0,1-.4-.39h0a.4.4,0,0,1,.8,0Z"/><path id="Path_579" data-name="Path 579" class="cls-3" d="M432,176.24a1.27,1.27,0,0,0-1.28,1.28,1.3,1.3,0,0,0,1.28,1.28,1.28,1.28,0,0,0,0-2.55Zm.4,1.28a.4.4,0,0,1-.4.4.39.39,0,0,1-.4-.39h0a.42.42,0,0,1,.4-.4.39.39,0,0,1,.4.39Z"/></g><g id="Group_455" data-name="Group 455"><g id="Group_452-2-2" data-name="Group 452-2"><path class="cls-1" d="M464.1,215.95c0,.15,0,.29,0,.4h-16c0-.1,0-.22,0-.34,0-1.07-.1-2.91-.1-3.19,0-1.56.1-3.22,1.22-4.36a6.36,6.36,0,0,1,2.45-1.45,4.76,4.76,0,0,1,.5-.18,7.15,7.15,0,0,1,.82-.24l2.14,4.06a10.88,10.88,0,0,0-.1-3.12l-.1-.41h2.25l-.1.41a15.92,15.92,0,0,0,0,3.12l2-4.06a8,8,0,0,1,1.33.42,6.24,6.24,0,0,1,2.45,1.35c1.12,1.14,1.22,2.81,1.33,4.36C464.2,212.89,464.12,214.84,464.1,215.95Z"/><ellipse class="cls-1" cx="456.13" cy="201.49" rx="4.46" ry="4.54"/></g><g id="Group_452-3" data-name="Group 452-3"><path class="cls-1" d="M441.15,216c0,.13,0,.24,0,.34h-16c0-.11,0-.25,0-.4,0-1.07-.1-2.86-.1-3.14a13.49,13.49,0,0,1,.11-1.91,4.84,4.84,0,0,1,.64-1.86,3.2,3.2,0,0,1,.47-.6,6.36,6.36,0,0,1,2.45-1.45,8,8,0,0,1,1.33-.42l1.31,2.47.84,1.58c0-.17,0-.59.05-1.08,0-.08,0-.17,0-.25s0-.17,0-.26a4.08,4.08,0,0,0-.17-1.54l-.1-.41h2.25l-.1.41a4,4,0,0,0-.09,1.1c0,.78.09,1.68.09,2l2-4.06.43.11.43.13.46.17a6.28,6.28,0,0,1,2.45,1.35c1.12,1.14,1.22,2.81,1.33,4.36C441.25,212.9,441.17,214.91,441.15,216Z"/><path class="cls-1" d="M437.64,201.5a4.52,4.52,0,0,1-1.07,2.93,4.31,4.31,0,0,1-1.9,1.33,4.16,4.16,0,0,1-1.49.27,4.54,4.54,0,0,1,0-9.08,4.44,4.44,0,0,1,3.39,1.61A4.52,4.52,0,0,1,437.64,201.5Z"/></g><g id="Group_452-4" data-name="Group 452-4"><path class="cls-1" d="M454,212.13c0,.22-.1,2.62-.11,3.87,0,.13,0,.24,0,.34H435.32c0-.1,0-.22,0-.34,0-1.22-.11-3.42-.11-3.75a14.4,14.4,0,0,1,.15-2.28,4.92,4.92,0,0,1,1.22-2.71l.05-.06a2.37,2.37,0,0,1,.38-.38,9.88,9.88,0,0,1,2.46-1.31A8.61,8.61,0,0,1,441,205l2.49,4.69c0-.48.23-2.89-.12-3.61l-.12-.48h2.6l-.12.48a18.44,18.44,0,0,0,0,3.61L448.1,205a8.71,8.71,0,0,1,1.53.48,7.2,7.2,0,0,1,2.51,1.29l.33.27C453.77,208.4,453.89,210.34,454,212.13Z"/><ellipse class="cls-1" cx="444.66" cy="199.14" rx="5.16" ry="5.26"/></g><path id="Path_580-2" data-name="Path 580" class="cls-1" d="M463.67,180.17H425.55a3.73,3.73,0,0,0-3.7,3.62v30.45a3.67,3.67,0,0,0,3.7,3.62h38.16a3.67,3.67,0,0,0,3.66-3.62V183.79A3.73,3.73,0,0,0,463.67,180.17Zm1.8,34.08a1.84,1.84,0,0,1-1.36,1.7,2,2,0,0,1-.43.06H425.55a1.65,1.65,0,0,1-.43-.05,1.78,1.78,0,0,1-1.37-1.71h0V188.47h41.73Zm0-27.64H423.74v-2.82a1.86,1.86,0,0,1,1.8-1.77h38.12a1.78,1.78,0,0,1,1.8,1.76Z"/><path id="Path_581-2" data-name="Path 581" class="cls-3" d="M456.09,183.19a1.28,1.28,0,1,0,1.28,1.28A1.28,1.28,0,0,0,456.09,183.19Zm0,1.67a.4.4,0,0,1-.4-.4.39.39,0,0,1,.4-.4.4.4,0,0,1,0,.79Z"/><path id="Path_582" data-name="Path 582" class="cls-3" d="M459.47,183.19a1.28,1.28,0,1,0,1.28,1.28A1.28,1.28,0,0,0,459.47,183.19Zm0,1.67a.4.4,0,0,1-.4-.4.39.39,0,0,1,.4-.4.4.4,0,0,1,0,.79Z"/><path id="Path_583" data-name="Path 583" class="cls-3" d="M462.77,183.19a1.28,1.28,0,0,0-1.28,1.28,1.3,1.3,0,0,0,1.28,1.28,1.28,1.28,0,0,0,0-2.55Zm0,1.67a.4.4,0,0,1-.4-.4.43.43,0,0,1,.4-.4.4.4,0,1,1,0,.79Z"/></g></g><text class="cls-8" transform="translate(368.18 313.65)">Be visible and get <tspan x="0" y="19.14">reached, increase </tspan><tspan x="0" y="38.28">Brand Awareness</tspan></text><circle class="cls-2" cx="602.73" cy="195.54" r="50.43"/><g id="Step4"><g id="Group_463" data-name="Group 463"><path id="Path_588" data-name="Path 588" class="cls-1" d="M590.34,197.5a.81.81,0,0,0-.67-.38H582a.76.76,0,0,0-.7.46l-.44.88h-2.89l-.44-.88a.77.77,0,0,0-.69-.46h-13.9a.81.81,0,0,0-.67.38.8.8,0,0,0,0,.77l2.49,5.17v13.14a.78.78,0,0,0,.75.8H587.1a.78.78,0,0,0,.78-.77V203.44l.07-.16,1-2.15-.87-1.76-1.05,2.13-.46,1h-6l1.81-3.73h6l0,0h1.72l.24-.5A.89.89,0,0,0,590.34,197.5Zm-26.18,1.23h12.17l1.8,3.73H566Zm14.44,17H566.25V204.06H578.6Zm7.72-11.72v11.72h-6.18V204.06Z"/><g id="Group_460" data-name="Group 460"><path id="Path_591" data-name="Path 591" class="cls-1" d="M585.93,182.44h-1.64a6.72,6.72,0,0,0-.75-1.91l1.09-1.09a.64.64,0,0,0,0-.83l-2.12-2.12a.63.63,0,0,0-.82,0l-1.09,1.09a6.84,6.84,0,0,0-1.92-.75v-1.57h0a.62.62,0,0,0-.62-.61h-2.94a.6.6,0,0,0-.62.54v1.65a6.71,6.71,0,0,0-1.91.75l-1.1-1.09a.63.63,0,0,0-.82,0l-2.12,2.12a.61.61,0,0,0,0,.82l1.09,1.1a6.71,6.71,0,0,0-.75,1.91h-1.58a.61.61,0,0,0-.61.62v3a.59.59,0,0,0,.54.62h1.65a6.84,6.84,0,0,0,.75,1.92l-1.09,1.09a.61.61,0,0,0,0,.82l2.12,2.12a.61.61,0,0,0,.82,0l1.1-1.09a9.52,9.52,0,0,0,1.91.82v1.51h0a.61.61,0,0,0,.62.61h3a.56.56,0,0,0,.57-.55v-1.65a6.84,6.84,0,0,0,1.92-.75l1.09,1.09a.61.61,0,0,0,.82,0l2.12-2.12a.63.63,0,0,0,0-.82l-1.09-1.09a9.76,9.76,0,0,0,.82-1.92h1.52a.61.61,0,0,0,.61-.62v-3A.56.56,0,0,0,585.93,182.44Zm-.61,3h-1.44a.6.6,0,0,0-.62.48,6.12,6.12,0,0,1-1,2.4.5.5,0,0,0,.07.68l1,1-1.31,1.31-1-1a.62.62,0,0,0-.75-.07,7.14,7.14,0,0,1-2.33,1,.52.52,0,0,0-.48.54v1.45h-1.85v-1.44a.6.6,0,0,0-.48-.62,6.65,6.65,0,0,1-2.4-1,.53.53,0,0,0-.69.07l-1,1-1.3-1.31,1-1a.63.63,0,0,0,.07-.75,5.93,5.93,0,0,1-1-2.33.65.65,0,0,0-.61-.48h-1.44v-1.86h1.44a.59.59,0,0,0,.61-.48,6.5,6.5,0,0,1,1-2.39.55.55,0,0,0-.07-.69l-1-1,1.3-1.31,1,1a.62.62,0,0,0,.75.07,5.8,5.8,0,0,1,2.33-1,.66.66,0,0,0,.48-.62V175.8h1.85v1.44a.6.6,0,0,0,.48.62,6.12,6.12,0,0,1,2.4,1,.53.53,0,0,0,.68-.07l1-1L583.4,179l-1,1a.62.62,0,0,0-.07.75,7.25,7.25,0,0,1,1,2.33.53.53,0,0,0,.54.48h1.44Z"/><path id="Path_592" data-name="Path 592" class="cls-1" d="M576.69,180.1h-.08a4.33,4.33,0,0,0-4.38,4.27v.12a4.31,4.31,0,0,0,4.31,4.32h.07a4.3,4.3,0,0,0,4.32-4.28v0A4.32,4.32,0,0,0,576.69,180.1Zm-.08,7.54a3.19,3.19,0,1,1,0-6.37h0a3.19,3.19,0,0,1,0,6.37Z"/></g></g><g id="Group_464" data-name="Group 464"><path id="Path_588-2" data-name="Path 588-2" class="cls-1" d="M643.24,197.5a.81.81,0,0,0-.67-.38h-7.72a.76.76,0,0,0-.7.46l-.44.88h-2.88l-.44-.88a.77.77,0,0,0-.7-.46H615.81a.81.81,0,0,0-.67.38.82.82,0,0,0,0,.77l.24.5h1.74l0,0h12.17l1.8,3.73H618.86l-.73-1.5-1-2.12-.88,1.77,1,2.14.34.7v13.14a.78.78,0,0,0,.74.8H640a.78.78,0,0,0,.78-.77V203.44l2.49-5.17A.89.89,0,0,0,643.24,197.5ZM631.5,215.78H619.14V204.06H631.5Zm7.72,0H633V204.06h6.18Zm.28-13.32h-6l1.81-3.73h6Z"/><g id="Group_460-2" data-name="Group 460-2"><path id="Path_591-2" data-name="Path 591-2" class="cls-1" d="M638.83,182.44h-1.65a6.49,6.49,0,0,0-.75-1.91l1.09-1.09a.64.64,0,0,0,0-.83l-2.12-2.12a.64.64,0,0,0-.83,0l-1.09,1.09a6.71,6.71,0,0,0-1.91-.75v-1.57h0a.62.62,0,0,0-.62-.61H628a.6.6,0,0,0-.62.54v1.65a6.84,6.84,0,0,0-1.92.75l-1.09-1.09a.63.63,0,0,0-.82,0l-2.12,2.12a.61.61,0,0,0,0,.82l1.09,1.1a6.51,6.51,0,0,0-.75,1.91h-1.58a.62.62,0,0,0-.62.62v3a.6.6,0,0,0,.55.62h1.65a6.84,6.84,0,0,0,.75,1.92l-1.09,1.09a.61.61,0,0,0,0,.82l2.12,2.12a.61.61,0,0,0,.82,0l1.09-1.09a9.76,9.76,0,0,0,1.92.82v1.51h0a.61.61,0,0,0,.62.61h3a.56.56,0,0,0,.57-.55v-1.65a6.71,6.71,0,0,0,1.91-.75l1.09,1.09a.62.62,0,0,0,.83,0l2.12-2.12a.63.63,0,0,0,0-.82l-1.09-1.09a9.76,9.76,0,0,0,.82-1.92h1.52a.61.61,0,0,0,.61-.62v-3A.56.56,0,0,0,638.83,182.44Zm-.62,3h-1.44a.6.6,0,0,0-.62.48,6,6,0,0,1-1,2.4.51.51,0,0,0,.07.68l1,1L635,191.35l-1-1a.62.62,0,0,0-.75-.07,7.14,7.14,0,0,1-2.33,1,.53.53,0,0,0-.49.54v1.45h-1.84v-1.44a.6.6,0,0,0-.49-.62,6.61,6.61,0,0,1-2.39-1,.53.53,0,0,0-.69.07l-1,1-1.31-1.31,1-1a.62.62,0,0,0,.07-.75,5.81,5.81,0,0,1-1-2.33.65.65,0,0,0-.61-.48h-1.44v-1.86h1.44a.59.59,0,0,0,.61-.48,6.61,6.61,0,0,1,1-2.39.53.53,0,0,0-.07-.69l-1-1,1.31-1.31,1,1a.62.62,0,0,0,.75.07,5.81,5.81,0,0,1,2.33-1,.66.66,0,0,0,.49-.62V175.8h1.84v1.44a.61.61,0,0,0,.49.62,6.17,6.17,0,0,1,2.4,1,.53.53,0,0,0,.68-.07l1-1L636.3,179l-1,1a.62.62,0,0,0-.07.75,7.11,7.11,0,0,1,1,2.33.53.53,0,0,0,.54.48h1.44Z"/><path id="Path_592-2" data-name="Path 592-2" class="cls-1" d="M629.58,180.1h-.08a4.33,4.33,0,0,0-4.38,4.27.31.31,0,0,0,0,.12,4.31,4.31,0,0,0,4.31,4.32h.07a4.31,4.31,0,0,0,4.32-4.28v0A4.33,4.33,0,0,0,629.58,180.1Zm-.08,7.54a3.19,3.19,0,1,1,0-6.37h0a3.19,3.19,0,0,1,0,6.37Z"/></g></g><path id="Path_589" data-name="Path 589" class="cls-1" d="M619.44,197.32a1,1,0,0,0-.16-.19,1,1,0,0,0-.65-.25h-9.32a.93.93,0,0,0-.84.54l-.53,1h-3.48l-.53-1a.93.93,0,0,0-.83-.54H586.31a1,1,0,0,0-.65.25.82.82,0,0,0-.17.19,1,1,0,0,0,0,.92l.24.49,1.36,2.77.88,1.78.54,1.09V220a.92.92,0,0,0,.9.95h26.14a.93.93,0,0,0,.94-.91V204.37l.8-1.63.87-1.78,1.1-2.23.24-.49A1.08,1.08,0,0,0,619.44,197.32ZM589,201.13l-.87-1.76-.29-.59h14.7l2.18,4.43H590ZM605.27,219H590.35V205.1h14.92Zm9.32,0h-7.46V205.1h7.46Zm1.63-18.42-1.29,2.6h-7.21l2.18-4.43h7.24l0,.06Z"/><g id="Group_461" data-name="Group 461"><path id="Path_591-3" data-name="Path 591-3" class="cls-3" d="M605.27,172.82a8,8,0,0,1,2.33.92l1.33-1.33a.76.76,0,0,1,1,0l2.58,2.58a.76.76,0,0,1,0,1l-1.33,1.33a8,8,0,0,1,.91,2.33h2a.68.68,0,0,1,.67.69.58.58,0,0,1,0,.06V184a.74.74,0,0,1-.74.75h-1.84a11.56,11.56,0,0,1-1,2.33l1.33,1.33a.76.76,0,0,1,0,1L609.93,192a.76.76,0,0,1-1,0l-1.33-1.33a8,8,0,0,1-2.33.92v2a.68.68,0,0,1-.69.67h-3.63a.74.74,0,0,1-.75-.74h0v-1.83a11.46,11.46,0,0,1-2.33-1L596.53,192a.75.75,0,0,1-1,0L593,189.38a.75.75,0,0,1,0-1l1.33-1.33a8.22,8.22,0,0,1-.92-2.33h-2a.73.73,0,0,1-.66-.75v-3.58a.75.75,0,0,1,.74-.75h1.92a8.19,8.19,0,0,1,.92-2.33L593,176a.75.75,0,0,1,0-1l2.58-2.58a.76.76,0,0,1,1,0l1.33,1.33a7.94,7.94,0,0,1,2.33-.92v-2a.73.73,0,0,1,.75-.67h3.58a.75.75,0,0,1,.75.75h0Zm-.83,1.25a.73.73,0,0,1-.59-.75v-1.75h-2.24v1.75a.8.8,0,0,1-.58.75,7,7,0,0,0-2.83,1.16.76.76,0,0,1-.92-.08L596,173.9l-1.58,1.58,1.25,1.25a.64.64,0,0,1,.08.83,8,8,0,0,0-1.16,2.91.73.73,0,0,1-.74.58h-1.75v2.25h1.75a.8.8,0,0,1,.74.58,7.09,7.09,0,0,0,1.16,2.83.76.76,0,0,1-.08.92l-1.25,1.25,1.58,1.58,1.25-1.25a.64.64,0,0,1,.83-.08,7.92,7.92,0,0,0,2.91,1.16.73.73,0,0,1,.58.75v1.75h2.24V191a.65.65,0,0,1,.59-.67,8.64,8.64,0,0,0,2.83-1.25.76.76,0,0,1,.91.08l1.25,1.25,1.58-1.58-1.25-1.25a.63.63,0,0,1-.08-.83,7.34,7.34,0,0,0,1.16-2.91.73.73,0,0,1,.75-.58h1.75v-2.25h-1.75a.64.64,0,0,1-.66-.58,8.66,8.66,0,0,0-1.25-2.83.75.75,0,0,1,.08-.92l1.25-1.25-1.58-1.58-1.25,1.25a.64.64,0,0,1-.83.08A7.42,7.42,0,0,0,604.44,174.07Z"/><path id="Path_592-3" data-name="Path 592-3" class="cls-3" d="M602.77,176.8a5.25,5.25,0,0,0-5.32,5.19s0,.09,0,.14a5.24,5.24,0,0,0,5.23,5.24h.09a5.22,5.22,0,0,0,5.24-5.2v0a5.24,5.24,0,0,0-5.15-5.32Zm0,9.15a3.87,3.87,0,1,1,0-7.74h0a3.87,3.87,0,0,1,0,7.74Z"/></g></g><text class="cls-8" transform="translate(534.24 313.07)">Maximize your sales<tspan x="4.59" y="19.14">enter new markets</tspan><tspan x="7.13" y="38.28">discover the globe</tspan></text><rect class="cls-1" x="730.62" y="264.34" width="75.91" height="33.97"/><circle class="cls-2" cx="768.58" cy="195.54" r="50.43"/><g id="Step5"><path id="Path_574" data-name="Path 574" class="cls-1" d="M787.83,187.57a21.28,21.28,0,1,0,1.67,8.26A21.28,21.28,0,0,0,787.83,187.57Zm-27.38-9.76a39.22,39.22,0,0,0-1.81,6.51,27.8,27.8,0,0,1-5.14-1.43A19.75,19.75,0,0,1,760.45,177.8ZM783,182.86a44.73,44.73,0,0,1-5,1.44,39,39,0,0,0-1.88-6.49,19.76,19.76,0,0,1,6.91,5.05Zm1.07,1.33A19.54,19.54,0,0,1,787.93,195H779a54,54,0,0,0-.73-9.14,35.1,35.1,0,0,0,5.85-1.67Zm-15,10.82v-8.18a54.85,54.85,0,0,0,7.52-.65,59.32,59.32,0,0,1,.74,8.83Zm8.25,1.63a61.37,61.37,0,0,1-.74,8.91,44.27,44.27,0,0,0-7.52-.74v-8.17ZM773.81,177a32.14,32.14,0,0,1,2.49,7.58,41.24,41.24,0,0,1-7.19.65v-9a19.56,19.56,0,0,1,4.7.77Zm-6.33,19.68v8.17a54.49,54.49,0,0,0-7.52.74,61.29,61.29,0,0,1-.74-8.91ZM759.22,195a59.33,59.33,0,0,1,.74-8.83,45.2,45.2,0,0,0,7.51.65V195Zm8.26-9.81a51.15,51.15,0,0,1-7.19-.65,32.19,32.19,0,0,1,2.49-7.58,19.56,19.56,0,0,1,4.7-.77Zm-9.15.65a63.58,63.58,0,0,0-.82,9.14h-8.85a19.54,19.54,0,0,1,3.81-10.81,35.1,35.1,0,0,0,5.86,1.66Zm-.73,10.79a56.61,56.61,0,0,0,.74,9.33,33.25,33.25,0,0,0-5.65,1.78,19.55,19.55,0,0,1-4-11.11Zm1.15,10.87a34,34,0,0,0,1.8,6.37,19.75,19.75,0,0,1-6.82-4.88,24.78,24.78,0,0,1,5-1.49Zm4,7.18a30.2,30.2,0,0,1-2.48-7.59,51.14,51.14,0,0,1,7.19-.65v9a19.56,19.56,0,0,1-4.71-.77Zm6.34-8.24a67.2,67.2,0,0,1,7.19.65,31.13,31.13,0,0,1-2.49,7.59,19.56,19.56,0,0,1-4.7.77Zm8.91,1.06a26.81,26.81,0,0,1,4.87,1.47,19.75,19.75,0,0,1-6.76,4.87,46.18,46.18,0,0,0,1.89-6.34Zm5.93.18a28.53,28.53,0,0,0-5.77-1.82,54.65,54.65,0,0,0,.82-9.23h8.93a19.55,19.55,0,0,1-4,11.05Z"/><g id="Group_467" data-name="Group 467"><g id="Line_17" data-name="Line 17"><path class="cls-3" d="M768.86,172.29a.89.89,0,0,1-.89-.89v-7.15a.89.89,0,1,1,1.79,0v7.15A.89.89,0,0,1,768.86,172.29Z"/></g><g id="Line_21" data-name="Line 21"><path class="cls-3" d="M768.86,227.72a.89.89,0,0,1-.89-.89v-7.15a.89.89,0,1,1,1.79,0v7.15A.89.89,0,0,1,768.86,227.72Z"/></g><g id="Line_18" data-name="Line 18"><path class="cls-3" d="M786.16,178.82a.89.89,0,0,1-.63-1.53l4.62-4.62a.89.89,0,1,1,1.26,1.26l-4.62,4.62A.89.89,0,0,1,786.16,178.82Z"/></g><g id="Line_19" data-name="Line 19"><path class="cls-3" d="M799.87,196.39h-6.53a.89.89,0,0,1,0-1.79h6.53a.89.89,0,1,1,0,1.79Z"/></g><g id="Line_20" data-name="Line 20"><path class="cls-3" d="M791.1,218a.89.89,0,0,1-.63-.26l-4.62-4.62a.89.89,0,1,1,1.26-1.26l4.62,4.62a.89.89,0,0,1-.63,1.53Z"/></g><g id="Line_18-2" data-name="Line 18-2"><path class="cls-3" d="M751.46,178.81a.89.89,0,0,1-.63-.26l-4.62-4.62a.89.89,0,0,1,1.26-1.26l4.62,4.62a.89.89,0,0,1-.63,1.53Z"/></g><g id="Line_19-2" data-name="Line 19-2"><path class="cls-3" d="M743.81,196.39h-6.53a.89.89,0,1,1,0-1.79h6.53a.89.89,0,1,1,0,1.79Z"/></g><g id="Line_20-2" data-name="Line 20-2"><path class="cls-3" d="M746.42,218a.89.89,0,0,1-.63-1.53l4.62-4.62a.89.89,0,0,1,1.26,1.26l-4.62,4.62A.89.89,0,0,1,746.42,218Z"/></g></g></g><text class="cls-5" transform="translate(712.93 274.71)">OPTIMIZE YOURE<tspan x="0" y="17.87" xml:space="preserve">           PAGE</tspan></text><text class="cls-4" transform="translate(723.78 313.07)"><tspan xml:space="preserve">   Never miss </tspan><tspan x="-8.66" y="19.14">Potential Client </tspan><tspan x="-23.63" y="38.29">Boost your business</tspan></text><circle class="cls-7" cx="425.35" cy="123.14" r="6.59"/><circle class="cls-7" cx="602.73" cy="122.54" r="6.59"/><circle class="cls-7" cx="768.86" cy="123.14" r="6.59"/><text class="cls-5" transform="translate(366.29 274.71)"><tspan xml:space="preserve">CREATE BUSINESS  </tspan><tspan x="0" y="17.87" xml:space="preserve">        ACCOUNT</tspan></text><text class="cls-5" transform="translate(545.31 273.71)">SHOWCASE YOUR<tspan x="-21.38" y="17.87" xml:space="preserve">PRODUCTS &amp; SERVICES  </tspan><tspan x="54.15" y="35.73" xml:space="preserve">  </tspan></text></g></svg>