<svg id="Layer_1" data-name="Layer 1" xmlns="http://www.w3.org/2000/svg" viewBox="0 0 1000 1000"><defs><style>.cls-1{fill:#fff;}</style></defs><title>Bookmark_White</title><path id="Path_583" data-name="Path 583" class="cls-1" d="M578.67,14.5,484.14,109a49.53,49.53,0,0,0,0,70.06L540.05,235,340,434.25C231.68,353.17,87.83,407,22.51,450.58l-.27.19a31.57,31.57,0,0,0-4.39,48.34L237.48,718.37,9.26,946.14a31.54,31.54,0,0,0,0,44.62h0a31.54,31.54,0,0,0,44.64,0L281.32,762.54,500.81,982a31.57,31.57,0,0,0,48.39-4.52h0c43-65.31,98-209.17,16.33-317.51L765,459.88l55.94,55.94a49.53,49.53,0,0,0,70,0l94.53-94.48a49.53,49.53,0,0,0,0-70.06L817.07,182.87,648.71,14.51A49.53,49.53,0,0,0,578.67,14.5Z"/></svg>