<svg id="Business_page" data-name="Business page" xmlns="http://www.w3.org/2000/svg" width="50" height="50" viewBox="0 0 50 50">
  <path id="Path_94" data-name="Path 94" d="M-11552.006,402.25a6.411,6.411,0,0,1,4.562,1.889,6.409,6.409,0,0,1,1.889,4.561v32.6a6.409,6.409,0,0,1-1.889,4.561,6.41,6.41,0,0,1-4.562,1.889h-32.6a6.409,6.409,0,0,1-4.562-1.889,6.41,6.41,0,0,1-1.89-4.561V408.7a6.41,6.41,0,0,1,1.89-4.561,6.409,6.409,0,0,1,4.562-1.889h32.6m0-2.25h-32.6a8.7,8.7,0,0,0-8.7,8.7v32.6a8.7,8.7,0,0,0,8.7,8.7h32.6a8.7,8.7,0,0,0,8.7-8.7V408.7a8.7,8.7,0,0,0-8.7-8.7Z" transform="translate(11593.305 -400)" fill="#333"/>
  <rect id="Rectangle_59" data-name="Rectangle 59" width="50" height="1.855" transform="translate(0 11.64)" fill="#333"/>
  <ellipse id="Ellipse_21" data-name="Ellipse 21" cx="1.501" cy="1.501" rx="1.501" ry="1.501" transform="translate(41.346 4.894)" fill="#e60000"/>
  <ellipse id="Ellipse_22" data-name="Ellipse 22" cx="1.501" cy="1.501" rx="1.501" ry="1.501" transform="translate(37.033 4.894)" fill="#e60000"/>
  <ellipse id="Ellipse_23" data-name="Ellipse 23" cx="1.501" cy="1.501" rx="1.501" ry="1.501" transform="translate(33.189 4.894)" fill="#e60000"/>
  <path id="Path_95" data-name="Path 95" d="M-11434.712,807.659h-13.444a.858.858,0,0,1-.857-.858v-4.979a.858.858,0,0,1,.857-.858h13.444a.859.859,0,0,1,.858.858V806.8A.859.859,0,0,1-11434.712,807.659Zm-15.222-6.119v5.543a1.5,1.5,0,0,0,1.5,1.5h14.007a1.5,1.5,0,0,0,1.5-1.5v-5.543a1.5,1.5,0,0,0-1.5-1.5h-14.007A1.5,1.5,0,0,0-11449.934,801.539Z" transform="translate(11456.585 -779.715)" fill="#333"/>
  <path id="Path_96" data-name="Path 96" d="M-11294.527,838.112v.62a1.851,1.851,0,0,1,.852.288l-.373.722a1.073,1.073,0,0,0-.632-.242.5.5,0,0,0-.338.1.241.241,0,0,0-.085.186.264.264,0,0,0,.079.186.888.888,0,0,0,.259.141l.294.1a1.576,1.576,0,0,1,.654.355.881.881,0,0,1,.282.688,1.187,1.187,0,0,1-.316.852,1.493,1.493,0,0,1-.676.367v.637h-.564v-.609a1.807,1.807,0,0,1-.639-.135,2.3,2.3,0,0,1-.547-.321l.406-.756a1.77,1.77,0,0,0,.39.288,1.328,1.328,0,0,0,.514.13.509.509,0,0,0,.366-.13.337.337,0,0,0,.1-.237.265.265,0,0,0-.113-.214,1.038,1.038,0,0,0-.254-.113l-.333-.113a1.482,1.482,0,0,1-.62-.35.861.861,0,0,1-.244-.654,1.149,1.149,0,0,1,.282-.8,1.256,1.256,0,0,1,.689-.372v-.62Z" transform="translate(11311.195 -816.015)" fill="#e60000"/>
  <path id="Path_97" data-name="Path 97" d="M-11351.787,811.119a4.143,4.143,0,0,1-4.14-4.138,4.143,4.143,0,0,1,4.14-4.138,4.143,4.143,0,0,1,4.138,4.138A4.143,4.143,0,0,1-11351.787,811.119Zm0-7.486a3.353,3.353,0,0,0-3.35,3.348,3.353,3.353,0,0,0,3.35,3.348,3.352,3.352,0,0,0,3.348-3.348A3.352,3.352,0,0,0-11351.787,803.634Z" transform="translate(11367.98 -782.386)" fill="#333"/>
  <path id="Path_98" data-name="Path 98" d="M-11036.988,838.823h-15.657a.928.928,0,0,1-.928-.928.928.928,0,0,1,.928-.928h15.657a.928.928,0,0,1,.928.928A.928.928,0,0,1-11036.988,838.823Z" transform="translate(11082.219 -815.053)" fill="#333"/>
  <path id="Path_99" data-name="Path 99" d="M-11036.988,927.829h-15.657a.927.927,0,0,1-.928-.928.928.928,0,0,1,.928-.928h15.657a.928.928,0,0,1,.928.928A.928.928,0,0,1-11036.988,927.829Z" transform="translate(11082.219 -899.596)" fill="#333"/>
  <path id="Path_100" data-name="Path 100" d="M-11438.883,1016.837h-15.657a.927.927,0,0,1-.929-.928.927.927,0,0,1,.929-.928h15.657a.93.93,0,0,1,.929.928A.93.93,0,0,1-11438.883,1016.837Z" transform="translate(11461.863 -984.139)" fill="#333"/>
  <path id="Path_101" data-name="Path 101" d="M-11438.883,1105.844h-15.657a.927.927,0,0,1-.929-.928.927.927,0,0,1,.929-.928h15.657a.93.93,0,0,1,.929.928A.93.93,0,0,1-11438.883,1105.844Z" transform="translate(11461.863 -1068.683)" fill="#333"/>
</svg>
