<svg xmlns="http://www.w3.org/2000/svg" width="50" height="49.997" viewBox="0 0 50 49.997">
  <g id="Content" transform="translate(0)">
    <path id="Path_102" data-name="Path 102" d="M-9105.96,402.25a6.411,6.411,0,0,1,4.562,1.889,6.413,6.413,0,0,1,1.889,4.561v32.6a6.413,6.413,0,0,1-1.889,4.561,6.411,6.411,0,0,1-4.562,1.889h-32.6a6.4,6.4,0,0,1-4.561-1.889,6.4,6.4,0,0,1-1.891-4.561V408.7a6.4,6.4,0,0,1,1.891-4.561,6.4,6.4,0,0,1,4.561-1.889h32.6m0-2.25h-32.6a8.7,8.7,0,0,0-8.7,8.7v32.6a8.7,8.7,0,0,0,8.7,8.7h32.6a8.7,8.7,0,0,0,8.7-8.7V408.7a8.7,8.7,0,0,0-8.7-8.7Z" transform="translate(9147.261 -400)" fill="#333"/>
    <path id="Path_103" data-name="Path 103" d="M-8482.906,1116.043a4.322,4.322,0,0,0-4.318,4.318,4.322,4.322,0,0,0,4.318,4.318,4.323,4.323,0,0,0,4.318-4.318A4.323,4.323,0,0,0-8482.906,1116.043Zm2.389,4.685-3.457,2.159a.425.425,0,0,1-.227.066.426.426,0,0,1-.209-.054.428.428,0,0,1-.225-.378V1118.2a.426.426,0,0,1,.225-.377.425.425,0,0,1,.436.011l3.457,2.159a.435.435,0,0,1,.2.366A.435.435,0,0,1-8480.518,1120.727Zm-3.254,1.014,2.211-1.38-2.211-1.38Z" transform="translate(8520.177 -1080.348)" fill="#333"/>
    <path id="Path_104" data-name="Path 104" d="M-8936.842,1127.692a1.367,1.367,0,0,0,1.365-1.364,1.367,1.367,0,0,0-1.365-1.365,1.366,1.366,0,0,0-1.363,1.365A1.365,1.365,0,0,0-8936.842,1127.692Z" transform="translate(8948.654 -1088.732)" fill="#333"/>
    <path id="Path_105" data-name="Path 105" d="M-8982.9,1167.464h8.188a.454.454,0,0,0,.378-.2.45.45,0,0,0,.042-.427l-2.273-5.458a.49.49,0,0,0-.423-.28.458.458,0,0,0-.421.285l-1.529,3.827-1.3-2.079a.473.473,0,0,0-.771,0l-2.274,3.639a.454.454,0,0,0-.012.462A.454.454,0,0,0-8982.9,1167.464Z" transform="translate(8991.533 -1123.131)" fill="#333"/>
    <path id="Path_106" data-name="Path 106" d="M-8699.541,1116.855a2.861,2.861,0,0,0-2.093-.811,2.957,2.957,0,0,0-2.792,2.984,3.967,3.967,0,0,0,.541,1.994l2.028,3.478a.362.362,0,0,0,.312.179.361.361,0,0,0,.311-.179l2.028-3.478a3.975,3.975,0,0,0,.54-1.994v-.107A2.851,2.851,0,0,0-8699.541,1116.855Zm-2,3.506a1.44,1.44,0,0,1-1.44-1.439,1.441,1.441,0,0,1,1.44-1.44,1.441,1.441,0,0,1,1.44,1.44A1.441,1.441,0,0,1-8701.545,1120.361Z" transform="translate(8726.547 -1080.348)" fill="#333"/>
    <path id="Path_107" data-name="Path 107" d="M-8887.633,964.043h-24.419a1,1,0,0,0-.993,1.007v4.957a1,1,0,0,0,.993,1.007,1,1,0,0,0,.994-1.007v-3.949h10.221v3.949a1,1,0,0,0,.993,1.007,1,1,0,0,0,1-1.007v-3.949h10.223v3.949a1,1,0,0,0,.993,1.007,1,1,0,0,0,.994-1.007V965.05A1,1,0,0,0-8887.633,964.043Z" transform="translate(8924.843 -935.876)" fill="#e60000"/>
    <path id="Path_109" data-name="Path 109" d="M-8868.1,474.3a7.908,7.908,0,0,1,2.295.9l1.312-1.312a.744.744,0,0,1,.982,0l2.542,2.541a.746.746,0,0,1,0,.984l-1.312,1.312a7.843,7.843,0,0,1,.9,2.3h1.968a.668.668,0,0,1,.655.738v3.525a.733.733,0,0,1-.735.738h-1.8a11.385,11.385,0,0,1-.983,2.3l1.312,1.312a.746.746,0,0,1,0,.984l-2.542,2.541a.744.744,0,0,1-.982,0l-1.312-1.312a7.907,7.907,0,0,1-2.295.9v1.967a.672.672,0,0,1-.74.656h-3.524a.733.733,0,0,1-.736-.738v-1.8a11.3,11.3,0,0,1-2.3-.984l-1.312,1.312a.747.747,0,0,1-.984,0l-2.543-2.541a.748.748,0,0,1,0-.984l1.313-1.312a7.963,7.963,0,0,1-.9-2.3h-1.967a.722.722,0,0,1-.654-.738v-3.525a.734.734,0,0,1,.737-.738h1.884a7.963,7.963,0,0,1,.9-2.3l-1.313-1.312a.748.748,0,0,1,0-.984l2.543-2.541a.747.747,0,0,1,.984,0l1.312,1.312a7.838,7.838,0,0,1,2.3-.9V472.33a.721.721,0,0,1,.736-.656h3.524a.737.737,0,0,1,.74.738Zm-.82,1.23a.721.721,0,0,1-.576-.738v-1.721h-2.212v1.721a.788.788,0,0,1-.573.738,6.95,6.95,0,0,0-2.789,1.148.745.745,0,0,1-.9-.082l-1.229-1.23-1.56,1.557,1.231,1.23a.632.632,0,0,1,.08.82,7.865,7.865,0,0,0-1.147,2.869.715.715,0,0,1-.736.574h-1.722v2.213h1.722a.785.785,0,0,1,.736.574,6.981,6.981,0,0,0,1.147,2.787.748.748,0,0,1-.08.9l-1.231,1.23,1.56,1.557,1.229-1.23a.631.631,0,0,1,.82-.082,7.818,7.818,0,0,0,2.87,1.148.718.718,0,0,1,.573.738v1.721h2.212V492.25a.636.636,0,0,1,.576-.656,8.51,8.51,0,0,0,2.786-1.23.745.745,0,0,1,.9.082l1.231,1.23,1.557-1.557-1.229-1.23a.619.619,0,0,1-.082-.82,7.258,7.258,0,0,0,1.146-2.869.722.722,0,0,1,.739-.574h1.722v-2.213h-1.722a.633.633,0,0,1-.654-.574,8.536,8.536,0,0,0-1.231-2.787.742.742,0,0,1,.082-.9l1.229-1.23-1.557-1.557-1.231,1.23a.629.629,0,0,1-.818.082A7.3,7.3,0,0,0-8868.918,475.527Z" transform="translate(8895.599 -468.064)" fill="#333"/>
    <path id="Path_110" data-name="Path 110" d="M-8745.367,603.511a5.179,5.179,0,0,0-5.246,5.246,5.161,5.161,0,0,0,5.246,5.164,5.142,5.142,0,0,0,5.165-5.164A5.161,5.161,0,0,0-8745.367,603.511Zm0,9.017a3.832,3.832,0,0,1-3.853-3.771,3.848,3.848,0,0,1,3.853-3.853,3.832,3.832,0,0,1,3.772,3.853A3.815,3.815,0,0,1-8745.367,612.528Z" transform="translate(8770.407 -593.356)" fill="#333"/>
  </g>
</svg>
