<svg id="Layer_1" data-name="Layer 1" xmlns="http://www.w3.org/2000/svg" viewBox="0 0 1000 1000"><defs><style>.cls-1{fill:#e60000;}</style></defs><title>Email_Red</title><path id="Path_581" data-name="Path 581" class="cls-1" d="M999.68,470.61C983.39,226.6,794.87,29.48,552.44,3,278.74-26.88,32.73,171.43,3,445.91s168,521.2,441.68,551q4.09.45,8.19.82a407.3,407.3,0,0,0,50.9,2.12,474.43,474.43,0,0,0,275.55-85,47.53,47.53,0,0,0-53-78.9C540.83,959.2,291,908.3,168.15,722.35,62.24,562,83.81,349,219.71,213.21c156.59-158,411.21-158.71,568.73-1.68a403.83,403.83,0,0,1,118,263.32,423.42,423.42,0,0,1-21.18,155.19,91.82,91.82,0,0,1-86.91,61.66A90.91,90.91,0,0,1,707.19,601q0-.36,0-.73V300.55a49.39,49.39,0,0,0-48.78-48.92A48.06,48.06,0,0,0,609.63,299q0,.8,0,1.59v14.87a222.4,222.4,0,0,0-133.51-42.48c-125.84-.12-228,102.09-228.07,228.29S349.85,729.83,475.69,730a227.47,227.47,0,0,0,148.83-55.29c40.32,95.72,150.39,140.53,245.83,100.09A187.92,187.92,0,0,0,974.26,664,599.91,599.91,0,0,0,999.68,470.61ZM476.13,634.48c-73.73,0-133.51-59.94-133.51-133.89S402.39,366.7,476.13,366.7s133.51,59.94,133.51,133.89c-.56,73.66-60,133.21-133.45,133.71Z"/></svg>