<svg id="Layer_1" data-name="Layer 1" xmlns="http://www.w3.org/2000/svg" viewBox="0 0 1000 1000"><defs><style>.cls-1{fill:#e60000;}</style></defs><title>Email-confirmation_Red</title><path class="cls-1" d="M752.48,517.71,204.37,339.63a62.84,62.84,0,0,0-49.89,4.16,65.81,65.81,0,0,0-32.57,38.11l-3.46,11.78h0l-106,325.68a62.84,62.84,0,0,0,4.16,49.89,65.81,65.81,0,0,0,38.11,32.57L432.34,924.47a19.18,19.18,0,0,0,6.24.69c9,0,16.63-5.54,20.1-14.55,3.46-11.09-2.77-22.87-13.17-26.33L67.86,761.63A23.49,23.49,0,0,1,54,749.85a23.17,23.17,0,0,1-1.39-18l94.24-289L352,702.73a64.67,64.67,0,0,0,51.28,24.95,57.09,57.09,0,0,0,18-2.77L740,635.51,687.34,798.35c-3.46,11.09,2.77,22.87,13.17,26.33,11.09,3.46,22.87-2.77,26.33-13.17l68.6-210.65A62.84,62.84,0,0,0,791.28,551,67.94,67.94,0,0,0,752.48,517.71Zm-343.7,167c-9,2.77-18.71-.69-24.95-8.32L161.4,395.06v-.69a23.49,23.49,0,0,1,11.78-13.86,23.17,23.17,0,0,1,18-1.39L739.31,557.21A23.57,23.57,0,0,1,754.56,587v.69Z"/><path class="cls-1" d="M667.94,914.08l-47.81-15.24L635.37,851c3.46-11.09-2.77-22.87-13.17-26.33-11.09-3.46-22.87,2.77-26.33,13.17l-15.24,47.81-47.81-15.24c-11.09-3.46-22.87,2.77-26.33,13.17-3.46,11.09,2.77,22.87,13.17,26.33l47.81,15.24L552.22,973c-3.46,11.09,2.77,22.87,13.17,26.33a19.18,19.18,0,0,0,6.24.69c9,0,16.63-5.54,20.1-14.55L607,937.64l47.81,15.24a19.18,19.18,0,0,0,6.24.69c9,0,16.63-5.54,20.1-14.55C685.27,929.32,679,918.23,667.94,914.08Z"/><path class="cls-1" d="M988.08,270.34c-6.24-9.7-18.71-13.17-28.41-6.93L766.34,379.82c-9.7,6.24-13.17,18.71-6.93,28.41,4.16,6.24,11.09,10.39,18,10.39,3.46,0,7.62-.69,10.39-2.77L981.15,299.44C990.85,292.51,993.62,280,988.08,270.34Z"/><path class="cls-1" d="M239,237.07a21.32,21.32,0,0,0,19.4,12.47,34.78,34.78,0,0,0,8.32-1.39c10.39-4.16,15.24-16.63,11.09-27l-88-207.88A21.7,21.7,0,0,0,162.1,1.48C151.7,5.63,146.85,18.11,151,28.5Z"/><path class="cls-1" d="M533.51,259.25a19.18,19.18,0,0,0,6.24.69c9,0,16.63-5.54,20.1-14.55L626.37,43.05c3.46-11.09-2.77-22.87-13.17-26.33-11.09-3.46-22.87,2.77-26.33,13.17L521,232.92A20.31,20.31,0,0,0,533.51,259.25Z"/></svg>