<svg id="Layer_1" data-name="Layer 1" xmlns="http://www.w3.org/2000/svg" viewBox="0 0 1000 1000"><defs><style>.cls-1{fill:#fff;}</style></defs><title>EmployeesWhite</title><path id="Path_129" data-name="Path 129" class="cls-1" d="M991.43,508.27l-120.14-172a11.05,11.05,0,0,0-4.73-4.41,45.58,45.58,0,0,0-11.33-6.17,17.2,17.2,0,0,0-6.6-.88H817.4c2.85-.88,4.73-2.65,7.58-3.53.94-.88,1.88-.88,2.85-1.76a21,21,0,0,0,4.73-2.65c.94-.88,1.88-.88,2.85-1.76s2.85-1.76,3.79-2.65l2.85-2.65c.94-.88,2.85-1.76,3.79-2.65l2.85-2.65L852.5,301l2.85-2.65a12.32,12.32,0,0,0,2.85-3.53l2.85-2.65c.94-.88,1.88-2.65,2.85-3.53a4.49,4.49,0,0,0,1.88-3.53c.94-.88,1.88-2.65,2.85-3.53s.94-1.76,1.88-3.53a6.53,6.53,0,0,0,1.88-3.53c.94-.88.94-2.65,1.88-3.53s.94-2.65,1.88-3.53.94-2.65,1.88-3.53c.94-1.76.94-2.65,1.88-4.41a5,5,0,0,0,.94-3.53,7.47,7.47,0,0,0,.94-4.41c0-.88.94-2.65.94-3.53,0-1.76.94-2.65.94-4.41,0-.88.94-2.65.94-3.53,0-1.76.94-2.65.94-4.41V212a10.53,10.53,0,0,0-.94-5.29,35.94,35.94,0,0,0-.94-4.41c0-2.65-.94-4.41-.94-7.06v-.79c-13.37-45-48.71-78.29-91.76-86.43-.94,0-1.88-.88-2.85-.88a22.25,22.25,0,0,0-7.58-.88c-1.88,0-3.79-.88-5.67-.88a12.79,12.79,0,0,1-5.67-.88H749.32a17.2,17.2,0,0,0-6.6.88c-1.88,0-3.79.88-5.67.88a18.53,18.53,0,0,0-6.6,1.76,14.12,14.12,0,0,0-5.67,1.76,63.72,63.72,0,0,1-6.6,1.76c-1.88.88-3.79.88-5.67,1.76l-5.67,2.65-5.67,2.65-5.67,2.65c0-.88-.94,0-2.85.88s-3.79,2.65-5.67,3.53a16.34,16.34,0,0,0-4.73,3.53c-1.88.88-2.85,2.65-4.73,4.41a13.77,13.77,0,0,0-3.79,3.53L669,141.49,665.22,145c-.94,1.76-2.85,3.53-3.79,5.29a15.68,15.68,0,0,1-3.79,4.41c-.94,1.76-2.85,3.53-3.79,5.29s-1.88,2.65-2.85,4.41l-2.85,5.29c-.94,1.76-1.88,2.65-2.85,4.41s-1.88,4.41-2.85,6.17-.94,3.53-1.88,4.41c-.94,2.65-.94,4.41-1.88,7.06,0,1.76-.94,2.65-.94,4.41a22.83,22.83,0,0,0-.94,7.94c0,1.76-.94,2.65-.94,4.41,0,4.41-.94,7.94-.94,12.35,1.72,47,29.29,88.33,70,104.9h-34a17.2,17.2,0,0,0-6.6.88,17.81,17.81,0,0,0-11.33,6.17l-4.73,4.41L528.82,506.5A40,40,0,0,0,526,549.72a.89.89,0,0,0,.89.89h0c.94,1.76,1.88,2.65,2.85,4.41l2.85,2.65,2.85,2.65a13,13,0,0,0,3.79,2.65,21,21,0,0,0,4.73,2.65c.94.88,2.85.88,3.79,1.76,1.88.88,2.85.88,4.73,1.76.94,0,2.85.88,3.79.88,1.88,0,2.85.88,4.73.88h12.23c1.88,0,2.85-.88,4.73-.88.94,0,2.85-.88,3.79-.88,1.88-.88,2.85-1.76,4.73-2.65.94-.88,1.88-.88,2.85-1.76,1.88-.88,2.85-2.65,4.73-3.53.94-.88,1.88-.88,1.88-1.76a49.44,49.44,0,0,0,5.67-7.06l54-77.52v44.09L601.67,671.46h54.87V852.25c.45,16.52,9.65,31.28,23.64,37.92,0,0,.94,0,.94.88a16.7,16.7,0,0,0,4.73,1.76c.94,0,2.85.88,3.79.88s2.85.88,3.79.88h13.25c1.88,0,2.85-.88,4.73-.88.94,0,2.85-.88,3.79-.88,1.88-.88,2.85-.88,4.73-1.76.94-.88,1.88-.88,3.79-1.76.94-.88,2.85-1.76,3.79-2.65l2.85-2.65a13.81,13.81,0,0,1,3.79-3.53c.94-.88,1.88-1.76,1.88-2.65.94-1.76,1.88-2.65,2.85-4.41.94-.88.94-1.76,1.88-2.65.94-1.76.94-3.53,1.88-5.29,0-.88.94-1.76.94-2.65a25.41,25.41,0,0,0,.94-8.82V686.5c1.15-9,8.86-15.37,17.23-14.13,6.79,1,12.13,6.78,13.06,14.13V853.13c.45,16.52,9.65,31.28,23.64,37.92,0,0,.94,0,.94.88a16.73,16.73,0,0,0,4.73,1.76c.94,0,2.85.88,3.79.88s2.85.88,3.79.88h13.25c1.88,0,2.85-.88,4.73-.88.94,0,2.85-.88,3.79-.88,1.88-.88,2.85-.88,4.73-1.76.94-.88,1.88-.88,3.79-1.76.94-.88,2.85-1.76,3.79-2.65l2.85-2.65a13.81,13.81,0,0,1,3.79-3.53l2.85-2.65c.94-1.76,1.88-2.65,2.85-4.41.94-.88.94-1.76,1.88-2.65.94-1.76.94-3.53,1.88-5.29,0-.88.94-1.76.94-2.65a25.41,25.41,0,0,0,.94-8.82V672.26h54L863.79,519.73V473.87l55.81,79.37c15.07,19.59,40.91,24.78,61.47,12.35h0c16.82-9,23.71-31,15.41-49.2A37.05,37.05,0,0,0,991.43,508.27Z"/><path id="Path_130" data-name="Path 130" class="cls-1" d="M470.32,508.71l-120.14-172a27.87,27.87,0,0,0-7.58-7.06A47.91,47.91,0,0,0,336,327c-1.88-.88-4.73-.88-7.58-1.76H296.25a20.87,20.87,0,0,0,7.58-4.41c.94-.88,1.88-.88,2.85-1.76a21,21,0,0,0,4.73-2.65c.94-.88,1.88-.88,2.85-1.76,1.88-.88,2.85-1.76,4.73-2.65l2.85-2.65c.94-.88,2.85-1.76,3.79-3.53l2.85-2.65,3.79-3.53,2.85-2.65c.94-.88,1.88-2.65,2.85-3.53l2.85-2.65c.94-.88,1.88-2.65,2.85-3.53s1.88-1.76,1.88-2.65c.94-1.76,1.88-2.65,2.85-4.41.94-.88.94-1.76,1.88-3.53s1.88-2.65,2.85-4.41c.94-.88.94-1.76,1.88-3.53a14.31,14.31,0,0,0,1.88-4.41c0-.88.94-1.76.94-2.65.94-1.76.94-3.53,1.88-5.29,0-.88.94-1.76.94-2.65a24.3,24.3,0,0,0,1.88-7.94V245c.94-2.65.94-5.29,1.88-7.94v-2.65c0-1.76.94-3.53.94-6.17v-8.82a40.14,40.14,0,0,0-.94-10.58h0a41.57,41.57,0,0,0-1.88-10.58c0-.88-.94-1.76-.94-2.65q-.77-3.58-1.88-7.06c0-1.76-.94-2.65-1.88-4.41s-.94-3.53-1.88-5.29l-2.85-5.29c-.94-.88-.94-2.65-1.88-3.53a21.73,21.73,0,0,0-3.79-6.17c0-.88-.94-.88-.94-1.76A91.37,91.37,0,0,0,315.29,126c-.94,0-.94-.88-1.88-.88-1.88-1.76-4.73-2.65-6.6-4.41-.94-.88-1.88-.88-3.79-1.76l-5.67-2.65-5.67-2.65a10.43,10.43,0,0,0-4.73-1.76c-2.85-.88-4.73-1.76-7.58-2.65-.94,0-1.88-.88-2.85-.88a185.49,185.49,0,0,0-23.64-4.41,34.42,34.42,0,0,0-9.46-.88h-2.85a66.87,66.87,0,0,0-13.25.88,6,6,0,0,0-3.79.88,35.75,35.75,0,0,0-9.46,1.76c-1.88,0-2.85.88-4.73.88-2.85.88-4.73.88-7.58,1.76-1.88.88-3.79.88-4.73,1.76a14.41,14.41,0,0,0-6.6,1.76c-1.88.88-2.85,1.76-4.73,2.65s-4.73,1.76-6.6,2.65-2.85,1.76-4.73,2.65-3.79,2.65-5.67,3.53a16.34,16.34,0,0,0-4.73,3.53,24.61,24.61,0,0,0-5.67,4.41,13.81,13.81,0,0,0-3.79,3.53l-4.73,4.41L146,143.6c-1.88,1.76-2.85,3.53-4.73,5.29a15.68,15.68,0,0,1-3.79,4.41c-.94,1.76-2.85,3.53-3.79,5.29s-1.88,2.65-2.85,4.41a41.52,41.52,0,0,0-2.85,6.17c-.94,1.76-1.88,2.65-2.85,4.41s-1.88,4.41-2.85,6.17-.94,3.53-1.88,4.41c-.94,2.65-.94,4.41-1.88,7.06,0,1.76-.94,2.65-.94,4.41a22.88,22.88,0,0,0-.94,7.94c0,1.76-.94,2.65-.94,4.41,0,4.41-.94,7.94-.94,12.35,1.7,47,29.27,88.4,70,105h-34a31.17,31.17,0,0,0-18,6.17L128,335.9,7.87,507A40,40,0,0,0,5,550.25a.89.89,0,0,0,.89.89H6c.94,1.76,1.88,2.65,2.85,4.41l2.85,2.65,2.85,2.65a13,13,0,0,0,3.79,2.65A21,21,0,0,0,23,566.12c.94.88,2.85.88,3.79,1.76,1.88.88,2.85.88,4.73,1.76.94,0,2.85.88,3.79.88,1.88,0,2.85.88,4.73.88H52.31c1.88,0,2.85-.88,4.73-.88.94,0,2.85-.88,3.79-.88,1.88-.88,2.85-1.76,4.73-2.65.94-.88,1.88-.88,2.85-1.76,1.88-.88,2.85-2.65,4.73-3.53.94-.88,1.88-.88,1.88-1.76a49.44,49.44,0,0,0,5.67-7.06l53.93-77.65V852.83c.46,16.52,9.66,31.28,23.64,37.92,0,0,.94,0,.94.88a16.7,16.7,0,0,0,4.73,1.76c.94,0,2.85.88,3.79.88s2.85.88,3.79.88c1.88,0,3.79.88,6.6.88H179a28,28,0,0,0,8.52-.88h.94c2.85-.88,4.73-.88,7.58-1.76H197a24.24,24.24,0,0,0,6.6-3.53s.94,0,.94-.88a24.61,24.61,0,0,0,5.67-4.41l.94-.88c1.88-1.76,2.85-3.53,4.73-5.29a.89.89,0,0,1,.89-.89h0c.94-1.76,2.85-4.41,3.79-6.17v-.88a19.63,19.63,0,0,0,1.88-7.06v-.88a22.83,22.83,0,0,0,.94-7.94V687c.52-8.36,7.2-14.68,14.93-14.13l.2,0c7.72-.68,14.48,5.54,15.11,13.9V853.75c.46,16.52,9.66,31.28,23.64,37.92,0,0,.94,0,.94.88a16.7,16.7,0,0,0,4.73,1.76c.94,0,2.85.88,3.79.88s2.85.88,3.79.88c1.88,0,3.79.88,6.6.88h.94a28,28,0,0,0,8.52-.88h.94c2.85-.88,4.73-.88,7.58-1.76h.94a24.24,24.24,0,0,0,6.6-3.53s.94,0,.94-.88a24.61,24.61,0,0,0,5.67-4.41l.94-.88c1.88-1.76,2.85-3.53,4.73-5.29a.89.89,0,0,1,.89-.89h0c.94-1.76,2.85-4.41,3.79-6.17v-.88a19.63,19.63,0,0,0,1.88-7.06v-.79a22.88,22.88,0,0,0,.94-7.94V474.27l55.81,79.37c15.07,19.59,40.91,24.78,61.47,12.35h0c17-9.59,23.52-32.23,14.66-50.58A37.84,37.84,0,0,0,470.32,508.71Z"/></svg>