<svg id="Layer_1" data-name="Layer 1" xmlns="http://www.w3.org/2000/svg" viewBox="0 0 1000 1000"><defs><style>.cls-1{fill:#e60000;}</style></defs><title>Folder_Red</title><g id="Group_597" data-name="Group 597"><path class="cls-1" d="M642.86,428.57a35.72,35.72,0,0,1-35.72,35.72H392.86a35.72,35.72,0,0,1,0-71.43H607.14A35.71,35.71,0,0,1,642.86,428.57Z"/><path class="cls-1" d="M999.72,203.26q-.21-4.09-.57-8.15-.48-5.41-1.23-10.75-.61-4.38-1.4-8.71c-.39-2.15-.82-4.3-1.28-6.43-.31-1.43-.63-2.86-1-4.28A214.57,214.57,0,0,0,829.16,4.41q-3.22-.66-6.48-1.23c-1.44-.25-2.89-.49-4.34-.71C813.9,1.8,809.42,1.25,804.9.85q-4.07-.36-8.16-.57-5.47-.28-11-.28H214.29q-5.55,0-11,.28-4.09.21-8.14.57c-1.81.16-3.63.35-5.43.55q-4.54.53-9,1.23A214.47,214.47,0,0,0,4.39,171h0c-.3,1.47-.59,2.94-.86,4.42-.54,3-1,5.95-1.45,8.95Q1.33,189.7.85,195.11q-.36,4.05-.57,8.15-.29,5.47-.28,11V785.71q0,5.55.28,11,.21,4.09.57,8.15.48,5.41,1.23,10.75c.42,3,.91,6,1.45,8.95.27,1.48.56,2.95.86,4.42h0A214.47,214.47,0,0,0,180.65,997.37q4.48.71,9,1.23c1.8.2,3.62.39,5.43.55q4.05.36,8.14.57,5.49.28,11,.28H785.72q5.55,0,11-.28,4.09-.21,8.16-.57c4.52-.4,9-1,13.44-1.62,1.45-.22,2.9-.46,4.34-.71q3.25-.57,6.48-1.23A214.57,214.57,0,0,0,994.28,835.06c.33-1.42.65-2.85,1-4.28.46-2.13.89-4.28,1.28-6.43q.78-4.34,1.4-8.71.75-5.34,1.23-10.75.36-4.05.57-8.15.29-5.47.28-11V214.29Q1000,208.74,999.72,203.26ZM214.29,71.43H785.72c78.76,0,142.85,64.09,142.85,142.86V250H71.43V214.29C71.43,135.52,135.52,71.43,214.29,71.43ZM785.72,928.57H214.29c-78.77,0-142.86-64.09-142.86-142.86V321.43H928.57V785.71C928.57,864.48,864.48,928.57,785.72,928.57Z"/><path class="cls-1" d="M999.72,203.26q-.21-4.09-.57-8.15-.48-5.41-1.23-10.75-.61-4.38-1.4-8.71c-.4-2.15-.83-4.3-1.28-6.43-.31-1.43-.63-2.86-1-4.28A215,215,0,0,0,829.16,4.41q-3.22-.66-6.48-1.23c-1.44-.25-2.89-.49-4.34-.71C813.9,1.8,809.42,1.25,804.9.85q-4.07-.36-8.16-.57-5.47-.28-11-.28H214.29q-5.55,0-11,.28-4.09.21-8.14.57c-1.81.16-3.63.35-5.43.55q-4.54.53-9,1.23C92.62,16.58,22.25,84.3,4.39,171h0c-.3,1.47-.59,2.94-.86,4.42-.54,3-1,5.95-1.45,8.95Q1.33,189.7.85,195.11q-.36,4.05-.57,8.15-.29,5.47-.28,11V785.71q0,5.55.28,11,.21,4.09.57,8.15.48,5.41,1.23,10.75c.42,3,.91,6,1.45,8.95.27,1.48.56,2.95.86,4.42h0c17.86,86.68,88.23,154.4,176.26,168.35q4.48.71,9,1.23c1.8.2,3.62.39,5.43.55q4.05.36,8.14.57,5.49.28,11,.28H785.72q5.55,0,11-.28,4.09-.21,8.16-.57c4.52-.4,9-1,13.44-1.62,1.45-.22,2.9-.46,4.34-.71q3.25-.57,6.48-1.23A215,215,0,0,0,994.28,835.06c.33-1.42.65-2.85,1-4.28.45-2.13.88-4.28,1.28-6.43q.78-4.34,1.4-8.71.75-5.34,1.23-10.75.36-4.05.57-8.15.29-5.47.28-11V214.29Q1000,208.74,999.72,203.26ZM928.57,785.71c0,78.77-64.09,142.86-142.85,142.86H214.29c-78.77,0-142.86-64.09-142.86-142.86V321.43H928.57Zm0-535.71H71.43V214.29c0-78.77,64.09-142.86,142.86-142.86H785.72c78.76,0,142.85,64.09,142.85,142.86Z"/><g id="Line_107" data-name="Line 107"><path class="cls-1" d="M642.86,428.57a35.72,35.72,0,0,1-35.72,35.72H392.86a35.72,35.72,0,0,1,0-71.43H607.14A35.71,35.71,0,0,1,642.86,428.57Z"/></g></g></svg>