<svg id="Layer_1" data-name="Layer 1" xmlns="http://www.w3.org/2000/svg" viewBox="0 0 1000 1000"><defs><style>.cls-1{fill:none;}.cls-2{fill:#333;}.cls-3{fill:#e60000;}</style></defs><title>Folder_Dark</title><g id="Group_597" data-name="Group 597"><rect class="cls-1" width="1000" height="1000" rx="214.28" ry="214.28"/><path class="cls-2" d="M785.72,0H214.29C96.13,0,0,96.12,0,214.29V785.71C0,903.88,96.13,1000,214.29,1000H785.72C903.88,1000,1000,903.88,1000,785.71V214.29C1000,96.12,903.88,0,785.72,0ZM214.29,71.43H785.72c78.77,0,142.86,64.09,142.86,142.86V250H71.43V214.29C71.43,135.52,135.52,71.43,214.29,71.43ZM785.72,928.57H214.29c-78.77,0-142.86-64.09-142.86-142.86V321.43H928.57V785.71C928.57,864.48,864.48,928.57,785.72,928.57Z"/><g id="Line_107" data-name="Line 107"><path class="cls-3" d="M607.14,464.29H392.86a35.71,35.71,0,0,1,0-71.43H607.14a35.71,35.71,0,0,1,0,71.43Z"/></g></g></svg>