<svg id="Layer_1" data-name="Layer 1" xmlns="http://www.w3.org/2000/svg" viewBox="0 0 1000 1000"><defs><style>.cls-1{fill:#e60000;}</style></defs><title>Help_Exhibitions_rotated_Red</title><path id="Path_601" data-name="Path 601" class="cls-1" d="M0,95.67V904.34A98.34,98.34,0,0,0,100.64,1000H685.22a98.34,98.34,0,0,0,100.62-95.64V643.86L990.47,516.74a19.46,19.46,0,0,0,0-33.47L785.86,356.14V95.67A98.34,98.34,0,0,0,685.24,0H100.66A98.34,98.34,0,0,0,0,95.67ZM685.24,40a57.21,57.21,0,0,1,58.55,55.64V367a19.73,19.73,0,0,0,9.51,16.74L940.47,500,753.3,616.3A19.73,19.73,0,0,0,743.76,633V904.34A57.21,57.21,0,0,1,685.22,960H100.64a57.21,57.21,0,0,1-58.55-55.64V95.67A57.21,57.21,0,0,1,100.64,40Z"/><path class="cls-1" d="M165.56,231.84a7.06,7.06,0,0,0-4.85,4L90.14,391.07a7.06,7.06,0,0,0,6.4,10.14H209.45v120H153a6.33,6.33,0,0,0-7.06,7.06V697.62a7.06,7.06,0,0,0,7.06,7.06h56.46v56.46a7.06,7.06,0,0,0,7.06,7.06h42.34a7.06,7.06,0,0,0,7.06-7.06V704.68H519.75v56.46a7.06,7.06,0,0,0,7.06,7.06h42.34a7.06,7.06,0,0,0,7.06-7.06V704.68h56.68a7.06,7.06,0,0,0,7.06-7.06V528.25a7.06,7.06,0,0,0-7.06-7.06H576.21v-120H689.34a7.06,7.06,0,0,0,6.4-10.14L625.17,235.81a7.06,7.06,0,0,0-6.4-4H167.11A7.06,7.06,0,0,0,165.56,231.84Zm8.57,14.95H611.52l63.42,139.47H110.72Zm91.77,154.42H519.75v120H265.91ZM163.44,536.44h459v153h-459Z"/></svg>