<svg xmlns="http://www.w3.org/2000/svg" viewBox="0 0 1000 1000"><defs><style>.cls-1{fill:#e60000;}</style></defs><title>Help_Enterprises_rotated_Red</title><g id="Layer_1" data-name="Layer 1"><path id="Path_601" data-name="Path 601" class="cls-1" d="M0,95.67V904.34A98.34,98.34,0,0,0,100.64,1000H685.22a98.34,98.34,0,0,0,100.62-95.64V643.86L990.47,516.74a19.46,19.46,0,0,0,0-33.47L785.86,356.14V95.67A98.34,98.34,0,0,0,685.24,0H100.66A98.34,98.34,0,0,0,0,95.67ZM685.24,40a57.21,57.21,0,0,1,58.55,55.64V367a19.73,19.73,0,0,0,9.51,16.74L940.47,500,753.3,616.3A19.73,19.73,0,0,0,743.76,633V904.34A57.21,57.21,0,0,1,685.22,960H100.64a57.21,57.21,0,0,1-58.55-55.64V95.67A57.21,57.21,0,0,1,100.64,40Z"/></g><g id="Group_981" data-name="Group 981"><g id="Group_962" data-name="Group 962"><path id="Path_1120" data-name="Path 1120" class="cls-1" d="M223.05,602.69H165.22a9.91,9.91,0,0,1-9.88-9.91v-58a9.91,9.91,0,0,1,9.9-9.9h57.82a9.91,9.91,0,0,1,9.9,9.9v58A9.91,9.91,0,0,1,223.05,602.69Zm-47.92-19.76h38V544.71h-38Z"/><path id="Path_1121" data-name="Path 1121" class="cls-1" d="M223.05,475.11H165.22a9.91,9.91,0,0,1-9.88-9.91v-58a9.91,9.91,0,0,1,9.9-9.9h57.82a9.91,9.91,0,0,1,9.9,9.9v58A9.91,9.91,0,0,1,223.05,475.11Zm-47.92-19.8h38V417.12h-38Z"/><path id="Path_1122" data-name="Path 1122" class="cls-1" d="M223.05,730.26H165.22a9.91,9.91,0,0,1-9.88-9.9v-58a9.91,9.91,0,0,1,9.9-9.9h57.82a9.91,9.91,0,0,1,9.9,9.9v58A9.91,9.91,0,0,1,223.05,730.26Zm-47.92-19.79h38V672.27h-38Z"/><path id="Path_1138" data-name="Path 1138" class="cls-1" d="M272,797H105.83a9.91,9.91,0,0,1-9.9-9.9V328.88a9.91,9.91,0,0,1,9.9-9.9H272a9.9,9.9,0,1,1,0,19.8H115.74V777.15H272a9.9,9.9,0,1,1,0,19.8Z"/></g><g id="Group_980" data-name="Group 980"><path id="Path_1125" data-name="Path 1125" class="cls-1" d="M505,602.68H447.12a9.91,9.91,0,0,1-9.9-9.9v-58a9.91,9.91,0,0,1,9.9-9.9H505a9.91,9.91,0,0,1,9.9,9.9v58A9.91,9.91,0,0,1,505,602.68ZM457,582.93h38V544.7H457Z"/><path id="Path_1126" data-name="Path 1126" class="cls-1" d="M620.65,602.68H562.8a9.91,9.91,0,0,1-9.9-9.9v-58a9.91,9.91,0,0,1,9.9-9.9h57.84a9.91,9.91,0,0,1,9.9,9.9v58a9.9,9.9,0,0,1-9.88,9.91Zm-47.94-19.76h38V544.7h-38Z"/><path id="Path_1127" data-name="Path 1127" class="cls-1" d="M389.28,602.68H331.42a9.91,9.91,0,0,1-9.9-9.9v-58a9.91,9.91,0,0,1,9.9-9.9h57.86a9.91,9.91,0,0,1,9.9,9.9v58A9.91,9.91,0,0,1,389.28,602.68Zm-47.95-19.76h38V544.7h-38Z"/><path id="Path_1128" data-name="Path 1128" class="cls-1" d="M505,475.11H447.12a9.91,9.91,0,0,1-9.9-9.9v-58a9.91,9.91,0,0,1,9.9-9.9H505a9.91,9.91,0,0,1,9.9,9.9v58a9.9,9.9,0,0,1-9.88,9.91ZM457,455.3h38V417.12H457Z"/><path id="Path_1129" data-name="Path 1129" class="cls-1" d="M620.65,475.11H562.8a9.91,9.91,0,0,1-9.9-9.9v-58a9.91,9.91,0,0,1,9.9-9.9h57.84a9.91,9.91,0,0,1,9.9,9.9v58a9.9,9.9,0,0,1-9.88,9.91Zm-47.94-19.8h38V417.12h-38Z"/><path id="Path_1130" data-name="Path 1130" class="cls-1" d="M389.28,475.11H331.42a9.91,9.91,0,0,1-9.9-9.9v-58a9.91,9.91,0,0,1,9.9-9.9h57.86a9.91,9.91,0,0,1,9.9,9.9v58a9.9,9.9,0,0,1-9.88,9.91Zm-47.95-19.8h38V417.12h-38Z"/><path id="Path_1131" data-name="Path 1131" class="cls-1" d="M505,347.53H447.12a9.91,9.91,0,0,1-9.9-9.9v-58a9.91,9.91,0,0,1,9.9-9.9H505a9.91,9.91,0,0,1,9.9,9.9v58A9.91,9.91,0,0,1,505,347.53ZM457,327.74h38V289.54H457Z"/><path id="Path_1132" data-name="Path 1132" class="cls-1" d="M620.65,347.53H562.8a9.91,9.91,0,0,1-9.9-9.9v-58a9.91,9.91,0,0,1,9.9-9.9h57.84a9.91,9.91,0,0,1,9.9,9.9v58A9.9,9.9,0,0,1,620.65,347.53Zm-47.94-19.8h38V289.54h-38Z"/><path id="Path_1133" data-name="Path 1133" class="cls-1" d="M389.28,347.53H331.42a9.91,9.91,0,0,1-9.9-9.9v-58a9.91,9.91,0,0,1,9.9-9.9h57.86a9.91,9.91,0,0,1,9.9,9.9v58A9.91,9.91,0,0,1,389.28,347.53Zm-47.95-19.8h38V289.54h-38Z"/><path id="Path_1134" data-name="Path 1134" class="cls-1" d="M524,797H428.13a9.91,9.91,0,0,1-9.9-9.9V662.37a9.91,9.91,0,0,1,9.9-9.9H524a9.91,9.91,0,0,1,9.9,9.9V787.1A9.91,9.91,0,0,1,524,797ZM438,777.2h76V672.27H438Z"/><path id="Path_1135" data-name="Path 1135" class="cls-1" d="M620.65,730.26H562.8a9.91,9.91,0,0,1-9.9-9.9v-58a9.91,9.91,0,0,1,9.9-9.9h57.84a9.91,9.91,0,0,1,9.9,9.9v58A9.9,9.9,0,0,1,620.65,730.26Zm-47.94-19.8h38V672.27h-38Z"/><path id="Path_1136" data-name="Path 1136" class="cls-1" d="M389.28,730.26H331.42a9.91,9.91,0,0,1-9.9-9.9v-58a9.91,9.91,0,0,1,9.9-9.9h57.86a9.91,9.91,0,0,1,9.9,9.9v58A9.91,9.91,0,0,1,389.28,730.26Zm-47.95-19.8h38V672.27h-38Z"/><path id="Path_1137" data-name="Path 1137" class="cls-1" d="M680,797H272a9.91,9.91,0,0,1-9.9-9.9V212.9A9.91,9.91,0,0,1,272,203H680a9.91,9.91,0,0,1,9.9,9.9v574.2A9.91,9.91,0,0,1,680,797ZM282,777.2H670.15V222.8H282Z"/></g></g></svg>