<svg id="Layer_1" data-name="Layer 1" xmlns="http://www.w3.org/2000/svg" viewBox="0 0 1000 1000"><defs><style>.cls-1{fill:#e60000;}</style></defs><title>Help_Payment_rotated_Red</title><path id="Path_601" data-name="Path 601" class="cls-1" d="M0,95.67V904.34A98.34,98.34,0,0,0,100.64,1000H685.22a98.34,98.34,0,0,0,100.62-95.64V643.86L990.47,516.74a19.46,19.46,0,0,0,0-33.47L785.86,356.14V95.67A98.34,98.34,0,0,0,685.24,0H100.66A98.34,98.34,0,0,0,0,95.67ZM685.24,40a57.21,57.21,0,0,1,58.55,55.64V367a19.73,19.73,0,0,0,9.51,16.74L940.47,500,753.3,616.3A19.73,19.73,0,0,0,743.76,633V904.34A57.21,57.21,0,0,1,685.22,960H100.64a57.21,57.21,0,0,1-58.55-55.64V95.67A57.21,57.21,0,0,1,100.64,40Z"/><path class="cls-1" d="M612.24,301.31l-47.88-48-17.87-17.87a13.92,13.92,0,0,0-3-2.09c-.42-.11-.73-.21-1-.32a12.33,12.33,0,0,0-2.71-.52c-.21,0-.42-.11-.63-.11H419.57l-22-22.09-17.87-17.87a14.17,14.17,0,0,0-3-2.09c-.42-.11-.73-.21-1-.32a12.31,12.31,0,0,0-2.72-.52c-.21,0-.41-.11-.62-.11H162.91a10.48,10.48,0,0,0-10.17,10.17,2.61,2.61,0,0,0,0,.28V722.5a2.62,2.62,0,0,0,0,.28,10.47,10.47,0,0,0,10.17,10.17H319.57V765.5a2.62,2.62,0,0,0,0,.28,10.47,10.47,0,0,0,10.16,10.17H623a10.47,10.47,0,0,0,10.16-10.17,2.56,2.56,0,0,0,0-.28v-439C633.14,320.75,612.24,301.31,612.24,301.31Zm-69.65-48.93L612.18,322H542.59ZM449.4,713.24H423.05A52,52,0,0,0,417,697.35a35.65,35.65,0,0,0-2.82-4.18c-.83-1-1.57-2-2.4-2.93a11.32,11.32,0,0,0-2.09-2.4,20.15,20.15,0,0,0-1.47-1.46,24.75,24.75,0,0,0-2.5-2.3c-.53-.42-1.05-.94-1.68-1.36a45.19,45.19,0,0,0-4.39-3c-1-.73-2.19-1.26-3.34-2-.42-.21-.84-.42-1.36-.63a25,25,0,0,0-5.23-2.19,28.7,28.7,0,0,0-3.13-1,.85.85,0,0,0-.53-.2c-.79-.2-1.55-.49-2.34-.74a11.76,11.76,0,0,0-1.42-.41V560.84l1.26-1.25A103.52,103.52,0,0,0,403.59,577a116.38,116.38,0,0,0,19.67,10.6l1.24.55a24.61,24.61,0,0,0,2.31.91l1.57.63a28.09,28.09,0,0,0,3.24,1.15c1.77.63,3.55,1.15,5.33,1.67s3.34,1.05,5.12,1.47a68.79,68.79,0,0,0,7.33,1.81c.7.14,1.39.27,2.08.38A117.09,117.09,0,0,0,466.31,598c1.36.08,2.73.14,4.09.16,2,.1,4,.1,6,.1s4.19,0,6.38-.1l4.6-.32c.52,0,1-.1,1.57-.1,1.15-.1,2.3-.21,3.45-.42h.21L495,597c1.05-.11,2.09-.21,3.14-.42a30.55,30.55,0,0,0,3.13-.42,71.79,71.79,0,0,0,9.41-2.19h.1c1.68-.42,3.35-.94,5-1.47a49.58,49.58,0,0,0,5.33-1.67c1.05-.42,2.2-.73,3.24-1.15,18-6.69,33.45-17.14,44.84-30.1l1.26,1.25V672.48c-1.36.31-2.51.83-3.77,1.15-.2.1-.31.1-.52.2a28.69,28.69,0,0,0-3.13,1c-1.15.42-2.2.84-3.35,1.25-.73.42-1.57.74-2.3,1.15l-.63.32c-1.35.73-2.5,1.36-3.65,2.09a3.83,3.83,0,0,0-.74.42c-1.25.83-2.5,1.67-3.65,2.61L547,684.08a24.81,24.81,0,0,0-2.5,2.3,18.38,18.38,0,0,0-1.47,1.46c-.63.63-1.25,1.36-1.88,2.09-.1.11-.21.21-.21.31-.84.95-1.57,1.89-2.4,2.93-.94,1.36-2,2.72-2.83,4.18a53.39,53.39,0,0,0-6.06,15.89H449.4ZM556.86,546.12c-11.31,13.36-28.13,23.6-47.85,29.1a110.81,110.81,0,0,1-27.7,4.2,38.27,38.27,0,0,1-5,.21q-5.09,0-10-.4a120,120,0,0,1-16.91-2.55A111.69,111.69,0,0,1,424.5,568a95.3,95.3,0,0,1-20.91-13.88,74.75,74.75,0,0,1-17.68-22.57A61.38,61.38,0,0,1,380,513a58.23,58.23,0,0,1-.66-8.79c0-20,10.08-38.28,26.51-51.79a95.82,95.82,0,0,1,18.64-12,111.73,111.73,0,0,1,24.9-8.73,120,120,0,0,1,16.91-2.56c3.3-.26,6.65-.4,10-.4,53.57,0,97,33.84,97,75.44a49.68,49.68,0,0,1-.32,5.71v.43C571.63,523.59,565.92,535.77,556.86,546.12ZM539.07,336.95h31.36v113.2a107.35,107.35,0,0,0-35.65-26.86l-5.33-2.51a35.13,35.13,0,0,0-3.55-1.46c-1.57-.63-3.14-1.26-4.81-1.78a121.21,121.21,0,0,0-38.78-7.32c-2-.1-4-.1-6-.1s-4,0-6,.1c-1.37,0-2.73.09-4.09.17a122.17,122.17,0,0,0-34.69,7.15c-1.67.52-3.24,1.15-4.81,1.78a24.61,24.61,0,0,0-2.31.91l-1.24.55-5.34,2.51A112.85,112.85,0,0,0,400,433.92a102.35,102.35,0,0,0-17.69,16.23V335.9a52.41,52.41,0,0,0,40.77-40.76H528.62V326.5A10.48,10.48,0,0,0,539.07,336.95ZM398.8,232.42h-23v-23ZM319.57,334.63a21.84,21.84,0,0,1-10.05,2.43,22.21,22.21,0,0,1,0-44.41,21.84,21.84,0,0,1,10.05,2.43Zm0-49.5a31.74,31.74,0,0,0-10.05-1.63,31.35,31.35,0,1,0,0,62.71,31.74,31.74,0,0,0,10.05-1.63v22.81c-1.36-.08-2.72-.14-4.09-.17-2-.1-4-.1-6-.1s-4,0-6,.1a121.26,121.26,0,0,0-38.78,7.32c-1.67.52-3.24,1.15-4.8,1.78a34.4,34.4,0,0,0-3.56,1.46l-5.33,2.51a107.41,107.41,0,0,0-35.64,26.86V292.9a52.34,52.34,0,0,0,40.76-40.76h63.36Zm0,342.17a21.84,21.84,0,0,1-10.05,2.43,22.2,22.2,0,0,1,0-44.41,21.84,21.84,0,0,1,10.05,2.43Zm0-49.5a31.73,31.73,0,0,0-10.05-1.63,31.35,31.35,0,1,0,0,62.71,31.73,31.73,0,0,0,10.05-1.63v33H256.21a52.28,52.28,0,0,0-6.06-15.89,36.87,36.87,0,0,0-2.82-4.18c-.84-1-1.57-2-2.4-2.93a11.38,11.38,0,0,0-2.1-2.4,20.13,20.13,0,0,0-1.46-1.46,24.89,24.89,0,0,0-2.51-2.3c-.52-.42-1-.94-1.67-1.36a45.19,45.19,0,0,0-4.39-3c-1.05-.73-2.19-1.26-3.34-2-.42-.21-.84-.42-1.36-.63a25.23,25.23,0,0,0-5.23-2.19,28.18,28.18,0,0,0-3.14-1,.8.8,0,0,0-.52-.2c-1.25-.32-2.4-.84-3.76-1.15V517.84l1.25-1.25a110.3,110.3,0,0,0,39.72,28,34.45,34.45,0,0,0,3.56,1.46l1.56.63a29.52,29.52,0,0,0,3.24,1.15c1.78.63,3.56,1.15,5.34,1.67s3.34,1.05,5.12,1.47a72,72,0,0,0,9.4,2.19,114.49,114.49,0,0,0,18.92,2c2,.1,4,.1,6,.1s4.18,0,6.38-.1l3.67-.25Zm0-41.62c-1.68.12-3.38.2-5.09.24a38.34,38.34,0,0,1-5,.21c-53.56,0-97-33.73-97-75.44s43.44-75.44,97-75.44c3.39,0,6.74.14,10.05.4ZM169.64,716.05V206.33H361.78v24.9h-115a10.49,10.49,0,0,0-10.46,10.46A31.3,31.3,0,0,1,205,273a10.49,10.49,0,0,0-10.46,10.46V638.88A10.49,10.49,0,0,0,205,649.34a29.82,29.82,0,0,1,14.21,3.55c1.26.63,2.51,1.46,3.76,2.19a21,21,0,0,1,3.35,2.72,18.18,18.18,0,0,1,2.82,2.93c0,.1,0,.1.11.21l2.5,3.45a25.45,25.45,0,0,1,1.89,3.76,20.94,20.94,0,0,1,1.25,3.24,2.44,2.44,0,0,1,.21.73,16.18,16.18,0,0,1,.84,3.87,23.35,23.35,0,0,1,.41,4.7,10.49,10.49,0,0,0,10.46,10.46h72.76v24.9Zm446.6,43H336.47V249.33H528.62v24.9h-115a10.49,10.49,0,0,0-10.45,10.46A31.32,31.32,0,0,1,371.83,316a10.49,10.49,0,0,0-10.45,10.46V681.88a10.45,10.45,0,0,0,5.64,9.27,10.29,10.29,0,0,0,4.81,1.19A29.82,29.82,0,0,1,386,695.89c1.26.63,2.51,1.46,3.77,2.19a20.53,20.53,0,0,1,3.34,2.72,18.17,18.17,0,0,1,2.82,2.93c0,.1,0,.1.11.21l2.51,3.45a25.37,25.37,0,0,1,1.88,3.76,20.91,20.91,0,0,1,1.25,3.24,2.43,2.43,0,0,1,.21.73c.1.31.2.62.29.93a15.12,15.12,0,0,1,.55,2.94,23.35,23.35,0,0,1,.42,4.7,10.47,10.47,0,0,0,5.64,9.27,10.29,10.29,0,0,0,4.81,1.19H539.07a10.49,10.49,0,0,0,10.45-10.46,24.09,24.09,0,0,1,.42-4.7,15.71,15.71,0,0,1,.84-3.87,1.46,1.46,0,0,1,.21-.73,17.38,17.38,0,0,1,1.25-3.24,25.37,25.37,0,0,1,1.88-3.76,20.32,20.32,0,0,1,2.51-3.45c0-.11,0-.11.1-.21a18.69,18.69,0,0,1,2.83-2.93,20.53,20.53,0,0,1,3.34-2.72,17.18,17.18,0,0,1,3.76-2.19,29.89,29.89,0,0,1,14.22-3.55,10.49,10.49,0,0,0,10.45-10.46V336.95h24.91Z"/><path class="cls-1" d="M476.35,619.17a31.35,31.35,0,1,0,31.36,31.36A31.44,31.44,0,0,0,476.35,619.17Zm0,53.56a21.92,21.92,0,0,1-10-2.42,22.18,22.18,0,0,1,0-39.57,21.91,21.91,0,0,1,10-2.42,22.2,22.2,0,1,1,0,44.41Z"/><path class="cls-1" d="M476.35,326.5a31.35,31.35,0,1,0,31.36,31.35A31.44,31.44,0,0,0,476.35,326.5Zm0,53.56a21.92,21.92,0,0,1-10-2.42,22.18,22.18,0,0,1,0-39.57,21.91,21.91,0,0,1,10-2.42,22.21,22.21,0,1,1,0,44.41Z"/></svg>