<svg xmlns="http://www.w3.org/2000/svg" viewBox="0 0 1000 1000"><defs><style>.cls-1{fill:#e60000;}</style></defs><title>Help_Professional_rotated_Red</title><g id="Layer_1" data-name="Layer 1"><path id="Path_601" data-name="Path 601" class="cls-1" d="M0,95.67V904.34A98.34,98.34,0,0,0,100.64,1000H685.22a98.34,98.34,0,0,0,100.62-95.64V643.86L990.47,516.74a19.46,19.46,0,0,0,0-33.47L785.86,356.14V95.67A98.34,98.34,0,0,0,685.24,0H100.66A98.34,98.34,0,0,0,0,95.67ZM685.24,40a57.21,57.21,0,0,1,58.55,55.64V367a19.73,19.73,0,0,0,9.51,16.74L940.47,500,753.3,616.3A19.73,19.73,0,0,0,743.76,633V904.34A57.21,57.21,0,0,1,685.22,960H100.64a57.21,57.21,0,0,1-58.55-55.64V95.67A57.21,57.21,0,0,1,100.64,40Z"/></g><g id="Group_954" data-name="Group 954"><path id="Path_575" data-name="Path 575" class="cls-1" d="M155.89,785.76H629.94c0-27.56,3-94.93,3-104.12,0-45.94-3-94.93-36.25-128.62-18.13-21.43-45.23-30.62-72.46-42.86a236.5,236.5,0,0,0-39.21-12.25L421.6,617.35c0-12.25-6-73.5,3-91.87l3.06-12.25h-66.4l3,12.25c6,18.37,0,76.58,0,91.87L303.86,497.91a236.35,236.35,0,0,0-39.23,12.25A185.76,185.76,0,0,0,192.17,550C159,583.65,155.92,632.65,152.9,678.59,152.88,684.67,155.89,758.2,155.89,785.76Z"/><ellipse id="Ellipse_32" data-name="Ellipse 32" class="cls-1" cx="391.46" cy="348" rx="131.89" ry="133.76"/></g></svg>