<svg xmlns="http://www.w3.org/2000/svg" viewBox="0 0 1000 1000"><defs><style>.cls-1{fill:#e60000;}</style></defs><title>Help_Auctions_rotated_Red</title><g id="Layer_1" data-name="Layer 1"><path id="Path_601" data-name="Path 601" class="cls-1" d="M0,95.67V904.34A98.34,98.34,0,0,0,100.64,1000H685.22a98.34,98.34,0,0,0,100.62-95.64V643.86L990.47,516.74a19.46,19.46,0,0,0,0-33.47L785.86,356.14V95.67A98.34,98.34,0,0,0,685.24,0H100.66A98.34,98.34,0,0,0,0,95.67ZM685.24,40a57.21,57.21,0,0,1,58.55,55.64V367a19.73,19.73,0,0,0,9.51,16.74L940.47,500,753.3,616.3A19.73,19.73,0,0,0,743.76,633V904.34A57.21,57.21,0,0,1,685.22,960H100.64a57.21,57.21,0,0,1-58.55-55.64V95.67A57.21,57.21,0,0,1,100.64,40Z"/></g><g id="Isolation_Mode" data-name="Isolation Mode"><path class="cls-1" d="M442.88,340.93A29.82,29.82,0,1,1,472.7,311.1h19.88a49.79,49.79,0,0,0-39.76-48.71V241.52H432.94v20.88a49.71,49.71,0,0,0,9.94,98.42,29.82,29.82,0,1,1-29.82,29.82H393.17a49.79,49.79,0,0,0,39.76,48.71v20.88h19.88V439.34a49.71,49.71,0,0,0-9.94-98.42Z"/><path class="cls-1" d="M592,350.87A149.12,149.12,0,1,0,413.06,497V599.4h-9.94a9.94,9.94,0,0,0-6.6,2.51l-82.77,73.58H217.8a23.92,23.92,0,0,0-23.92,23.86v75a23.92,23.92,0,0,0,23.92,23.86H502.53a29.69,29.69,0,0,0,22.07-49.71,29.37,29.37,0,0,0,0-39.76,29.37,29.37,0,0,0,0-39.76,29.69,29.69,0,0,0-22.07-49.71H490.76a29.82,29.82,0,0,0-18.05-18.05V497A149.37,149.37,0,0,0,592,350.87Zm-149.12,333V659H423v24.85a34.73,34.73,0,0,0,14.85,28.42,29.45,29.45,0,0,0,2.84,36.2,28.91,28.91,0,0,0-6,29.82H324V693l82.89-73.68h55.87a9.94,9.94,0,0,1,9.94,9.94v54.68a14.91,14.91,0,1,1-29.82,0Zm59.65,94.44H462.76a9.94,9.94,0,1,1,0-19.88h39.76a9.94,9.94,0,1,1,0,19.88Zm-9.94-139.18h9.94a9.94,9.94,0,1,1,0,19.88h-9.94Zm0,44.73v-5h9.94a9.94,9.94,0,1,1,0,19.88H489.1A34.44,34.44,0,0,0,492.59,683.89Zm9.94,34.79a9.94,9.94,0,1,1,0,19.88H462.76a9.94,9.94,0,1,1,0-19.88ZM442.88,480.1A129.23,129.23,0,1,1,572.11,350.87,129.38,129.38,0,0,1,442.88,480.1Z"/></g></svg>