<svg id="Layer_1" data-name="Layer 1" xmlns="http://www.w3.org/2000/svg" viewBox="0 0 1000 1000"><defs><style>.cls-1{fill:#fff;}</style></defs><title>Inbox_White</title><path class="cls-1" d="M983.88,407.83a159.84,159.84,0,0,0-55.82-115.57l-.27-.23L587.42,28.69l-.32-.24a147.75,147.75,0,0,0-174.33,0l-.16.12L72.1,291.87l-.58.48a159.79,159.79,0,0,0-55.4,115.51v466.8a129.57,129.57,0,0,0,27.74,80.11A39.57,39.57,0,0,0,58.43,970.3a114.38,114.38,0,0,0,76.43,29.7H865.28a114.32,114.32,0,0,0,76.43-29.77,38.88,38.88,0,0,0,10.85-9.78,40.21,40.21,0,0,0,3.56-5.59,130,130,0,0,0,27.77-80.19V407.83ZM904.36,866.22,657.19,651.66l247-214.46ZM463.95,653.48a58,58,0,0,1,72.23,0L840.35,917.41H159.78Zm-50.66-63.69-9.5,8.27L123.51,354.49l4.18-3.37L458.94,95a72.73,72.73,0,0,1,81.36,0L875.93,354.52,595.39,598.06l-9.23-8-.27-.23a135.42,135.42,0,0,0-172.59,0ZM342,651.55,95.18,866.25v-3.08l-.24-.06v-426Z"/></svg>