<svg id="Layer_1" data-name="Layer 1" xmlns="http://www.w3.org/2000/svg" viewBox="0 0 1000 1000"><defs><style>.cls-1{fill:#333;}.cls-2{fill:#e60000;}</style></defs><title>List_business_Dark</title><g id="Step2"><g id="Group_454" data-name="Group 454"><g id="Group_452" data-name="Group 452"><path id="Path_575" data-name="Path 575" class="cls-1" d="M426.45,681H169.75c0-15-1.67-51.6-1.67-56.59,0-25,1.67-51.6,19.63-69.89,9.82-11.67,24.49-16.67,39.24-23.33a127.84,127.84,0,0,1,21.23-6.67l34.37,64.92c0-6.67,3.24-39.94-1.67-49.93l-1.67-6.67h36l-1.67,6.67c-3.27,10,0,41.61,0,49.93l32.72-64.92a128,128,0,0,1,21.24,6.67,100.52,100.52,0,0,1,39.24,21.67c18,18.33,19.63,44.94,21.27,69.89C428.1,626.1,426.45,666,426.45,681Z"/><ellipse id="Ellipse_32" data-name="Ellipse 32" class="cls-1" cx="298.91" cy="443.1" rx="71.42" ry="72.7"/></g><path id="Path_576" data-name="Path 576" class="cls-1" d="M547.76,208.32H48.44A48.76,48.76,0,0,0,0,255.63V653.52a48,48,0,0,0,48.44,47.31H405.25V676.57H48.44a23.34,23.34,0,0,1-23.6-23V316.8h391.6a48.6,48.6,0,0,1,37.15-17.63H596.2V255.63A48.76,48.76,0,0,0,547.76,208.32Zm23.6,84.18H24.85V255.63a24.16,24.16,0,0,1,23.59-23H547.76a23.33,23.33,0,0,1,23.6,23Z"/><path id="Path_577" data-name="Path 577" class="cls-2" d="M448.57,281.16A16.67,16.67,0,1,0,431.9,264.5,16.67,16.67,0,0,0,448.57,281.16Zm0-21.84a5.15,5.15,0,0,1,5.17,5.13v0a5.15,5.15,0,0,1-5.12,5.17h0a5.15,5.15,0,0,1-5.17-5.13v0a5.15,5.15,0,0,1,5.12-5.17Z"/><path id="Path_578" data-name="Path 578" class="cls-2" d="M493.08,281.16a16.67,16.67,0,1,0-16.67-16.67A16.67,16.67,0,0,0,493.08,281.16Zm0-21.84a5.15,5.15,0,0,1,5.17,5.13v0a5.15,5.15,0,0,1-5.12,5.17h0a5.15,5.15,0,0,1-5.17-5.13v0a5.15,5.15,0,0,1,5.12-5.17Z"/><path id="Path_579" data-name="Path 579" class="cls-2" d="M536.19,281.16a16.67,16.67,0,1,0-16.67-16.67A17.06,17.06,0,0,0,536.19,281.16Zm0-21.84a5.15,5.15,0,0,1,5.17,5.13v0a5.15,5.15,0,0,1-5.12,5.17h0a5.15,5.15,0,0,1-5.17-5.13v0A5.56,5.56,0,0,1,536.19,259.32Z"/></g><g id="Group_455" data-name="Group 455"><g id="Group_452-2" data-name="Group 452-2"><path id="Path_575-2" data-name="Path 575-2" class="cls-1" d="M955.76,771.88H746.37c0-12.22-1.33-42.08-1.33-46.16,0-20.37,1.33-42.08,16-57,8-9.51,20-13.58,32-19a104.16,104.16,0,0,1,17.32-5.43l28,52.95c0-5.43,2.64-32.58-1.32-40.72l-1.35-5.43h29.32l-1.34,5.43c-2.67,8.14,0,33.94,0,40.72l26.67-52.95a104,104,0,0,1,17.32,5.43,82,82,0,0,1,32,17.64c14.67,14.93,16,36.67,17.35,57C957.1,727.08,955.76,759.65,955.76,771.88Z"/><ellipse id="Ellipse_32-2" data-name="Ellipse 32-2" class="cls-1" cx="851.72" cy="577.81" rx="58.25" ry="59.3"/></g><g id="Group_452-3" data-name="Group 452-3"><path id="Path_575-3" data-name="Path 575-3" class="cls-1" d="M655.92,771.88H446.53c0-12.22-1.33-42.08-1.33-46.16,0-20.37,1.33-42.08,16-57,8-9.51,20-13.58,32-19a104.17,104.17,0,0,1,17.32-5.43l28,52.95c0-5.43,2.64-32.58-1.32-40.72l-1.35-5.43h29.32l-1.34,5.43c-2.67,8.14,0,33.94,0,40.72l26.67-52.95a104,104,0,0,1,17.32,5.43,82,82,0,0,1,32,17.64c14.67,14.93,16,36.67,17.35,57C657.26,727.08,655.92,759.65,655.92,771.88Z"/><ellipse id="Ellipse_32-3" data-name="Ellipse 32-3" class="cls-1" cx="551.88" cy="577.81" rx="58.25" ry="59.3"/></g><g id="Group_452-4" data-name="Group 452-4"><path id="Path_575-4" data-name="Path 575-4" class="cls-1" d="M822.42,771.88H579.88c0-14.17-1.55-48.75-1.55-53.47,0-23.59,1.55-48.75,18.55-66,9.27-11,23.13-15.73,37.07-22A120.62,120.62,0,0,1,654,624.09l32.5,61.33c0-6.29,3.06-37.74-1.54-47.17L683.41,632h34l-1.55,6.29c-3.08,9.43,0,39.32,0,47.17l30.92-61.33a120.51,120.51,0,0,1,20.07,6.29,95,95,0,0,1,37.07,20.44c17,17.3,18.55,42.5,20.1,66C824,720,822.42,757.73,822.42,771.88Z"/><ellipse id="Ellipse_32-4" data-name="Ellipse 32-4" class="cls-1" cx="701.9" cy="547.09" rx="67.47" ry="68.68"/></g><path id="Path_580" data-name="Path 580" class="cls-1" d="M950.18,299.17H452.12a48.7,48.7,0,0,0-48.33,47.31V744.37a47.89,47.89,0,0,0,48.33,47.31H950.2a47.87,47.87,0,0,0,48.33-47.31V346.48A48.7,48.7,0,0,0,950.18,299.17ZM452.12,323.43H950.2a23.27,23.27,0,0,1,23.54,23v36.92H428.57V346.48A24.12,24.12,0,0,1,452.12,323.43Zm498.08,444H452.12a23.27,23.27,0,0,1-23.54-23V407.65H973.74V744.4a24.12,24.12,0,0,1-23.56,23Z"/><path id="Path_581" data-name="Path 581" class="cls-2" d="M851.22,372a16.67,16.67,0,1,0-16.67-16.67A16.67,16.67,0,0,0,851.22,372Zm0-21.84a5.15,5.15,0,1,1-.05,0Z"/><path id="Path_582" data-name="Path 582" class="cls-2" d="M895.38,372a16.67,16.67,0,1,0-16.67-16.67A16.67,16.67,0,0,0,895.38,372Zm0-21.84a5.15,5.15,0,1,1-.05,0Z"/><path id="Path_583" data-name="Path 583" class="cls-2" d="M938.49,372a16.67,16.67,0,1,0-16.67-16.67A17.06,17.06,0,0,0,938.49,372Zm0-21.84a5.17,5.17,0,1,1-5.17,5.17A5.56,5.56,0,0,1,938.49,350.17Z"/></g></g></svg>