<svg xmlns="http://www.w3.org/2000/svg" width="50" height="49.996" viewBox="0 0 50 49.996">
  <g id="Messaging" transform="translate(0)">
    <g id="Isolation_Mode" data-name="Isolation Mode" transform="translate(0 0)">
      <g id="Group_218" data-name="Group 218">
        <g id="Group_215" data-name="Group 215">
          <path id="Path_138" data-name="Path 138" d="M-6635.353,402.25a6.408,6.408,0,0,1,4.561,1.889,6.409,6.409,0,0,1,1.89,4.56v32.6a6.409,6.409,0,0,1-1.89,4.56,6.407,6.407,0,0,1-4.561,1.889h-32.6a6.406,6.406,0,0,1-4.561-1.889,6.4,6.4,0,0,1-1.888-4.56V408.7a6.4,6.4,0,0,1,1.888-4.56,6.406,6.406,0,0,1,4.561-1.889h32.6m0-2.25h-32.6a8.7,8.7,0,0,0-8.7,8.7v32.6a8.7,8.7,0,0,0,8.7,8.7h32.6a8.7,8.7,0,0,0,8.7-8.7V408.7a8.7,8.7,0,0,0-8.7-8.7Z" transform="translate(6676.653 -400)" fill="#333"/>
        </g>
        <g id="Group_217" data-name="Group 217" transform="translate(7.045 6.061)">
          <path id="Path_139" data-name="Path 139" d="M-6271.052,642.43h-9.8c0-.562-.063-1.936-.063-2.123a3.537,3.537,0,0,1,.75-2.622,3.95,3.95,0,0,1,1.5-.874,4.939,4.939,0,0,1,.811-.25l1.313,2.435a6.457,6.457,0,0,0-.062-1.873l-.063-.25h1.374l-.062.25a9.374,9.374,0,0,0,0,1.873l1.25-2.435a4.94,4.94,0,0,1,.812.25,3.855,3.855,0,0,1,1.5.812,3.87,3.87,0,0,1,.812,2.622C-6270.99,640.37-6271.052,641.868-6271.052,642.43Z" transform="translate(6293.631 -630.777)" fill="#333"/>
          <path id="Path_140" data-name="Path 140" d="M-6263.6,1164.045v2a.3.3,0,0,1-.312.312h-9.179a.294.294,0,0,1-.312-.312c0-.437-.062-.812-.062-1.249v-.624a3.542,3.542,0,0,1,.748-2.623,4.14,4.14,0,0,1,1.375-.937,3.187,3.187,0,0,1,.874-.25h3.809c.25.063.625.125.874.188a2.9,2.9,0,0,1,1.375.874A3.664,3.664,0,0,1-6263.6,1164.045Z" transform="translate(6286.553 -1128.481)" fill="#333"/>
          <path id="Path_141" data-name="Path 141" d="M-6526.746,1164.045v2a.3.3,0,0,1-.311.312h-9.18a.3.3,0,0,1-.312-.312c0-.437-.063-.812-.063-1.249v-.624a3.539,3.539,0,0,1,.75-2.623,4.144,4.144,0,0,1,1.374-.937,3.192,3.192,0,0,1,.874-.25h3.872c.251.063.624.125.875.188a2.892,2.892,0,0,1,1.373.874A3.923,3.923,0,0,1-6526.746,1164.045Z" transform="translate(6536.612 -1128.481)" fill="#333"/>
          <path id="Path_142" data-name="Path 142" d="M-6002.946,1164.045v2a.3.3,0,0,1-.312.312h-9.179a.3.3,0,0,1-.312-.312c0-.437-.062-.812-.062-1.249v-.624a3.539,3.539,0,0,1,.749-2.623,4.123,4.123,0,0,1,1.375-.937,3.18,3.18,0,0,1,.874-.25h3.809c.251.063.625.125.875.188a2.9,2.9,0,0,1,1.374.874A3.667,3.667,0,0,1-6002.946,1164.045Z" transform="translate(6038.855 -1128.481)" fill="#333"/>
          <path id="Path_143" data-name="Path 143" d="M-6194.954,762.944a.688.688,0,0,0-.687-.687h-.187a.69.69,0,0,0-.687.687v10.643a.781.781,0,0,0,.781.781h0a.78.78,0,0,0,.781-.781Z" transform="translate(6213.472 -750.239)" fill="#e60000"/>
          <ellipse id="Ellipse_24" data-name="Ellipse 24" cx="2.728" cy="2.727" rx="2.728" ry="2.727" transform="translate(2.206 26.276)" fill="#333"/>
          <ellipse id="Ellipse_25" data-name="Ellipse 25" cx="2.728" cy="2.727" rx="2.728" ry="2.727" transform="translate(15.289 26.244)" fill="#333"/>
          <ellipse id="Ellipse_26" data-name="Ellipse 26" cx="2.728" cy="2.727" rx="2.728" ry="2.727" transform="translate(14.98)" fill="#333"/>
          <ellipse id="Ellipse_27" data-name="Ellipse 27" cx="2.728" cy="2.727" rx="2.728" ry="2.727" transform="translate(28.249 26.244)" fill="#333"/>
          <g id="Group_216" data-name="Group 216" transform="translate(3.749 12.911)">
            <path id="Path_144" data-name="Path 144" d="M-6448.159,780.1a14.618,14.618,0,0,0-13.891,10.262.729.729,0,0,0,.688.951h0a.724.724,0,0,0,.686-.518,13.176,13.176,0,0,1,12.517-9.246,13.177,13.177,0,0,1,12.517,9.246.724.724,0,0,0,.686.518h0a.729.729,0,0,0,.688-.951A14.618,14.618,0,0,0-6448.159,780.1Z" transform="translate(6462.084 -780.1)" fill="#e60000"/>
          </g>
        </g>
      </g>
    </g>
  </g>
</svg>
