<svg xmlns="http://www.w3.org/2000/svg" viewBox="0 0 1000 1000"><defs><style>.cls-1{fill:#fff;}</style></defs><title>ProductWhite</title><g id="Group_955" data-name="Group 955"><path id="Path_589" data-name="Path 589" class="cls-1" d="M996.41,160.94a28.29,28.29,0,0,0-23.58-13H700.16a26.76,26.76,0,0,0-24.51,15.8l-15.49,30.58H558.39L542.9,163.7a27.24,27.24,0,0,0-24.51-15.8H27.54a28.64,28.64,0,0,0-23.71,13,28.28,28.28,0,0,0-.9,26.76L91.12,367.51V824.37a27,27,0,0,0,26.26,27.72H881.94a27,27,0,0,0,27.28-26.69q0-.52,0-1V367.55l88.19-179.81A30.74,30.74,0,0,0,996.41,160.94ZM72,203.55h429.9L565.58,333.3h-430Zm509.88,593H145.56V388.85H581.92Zm272.67,0H636.52V388.85H854.59Zm10-463.28H653.71L717.4,203.49H929.2Z"/></g></svg>