<svg xmlns="http://www.w3.org/2000/svg" width="50" height="50.002" viewBox="0 0 50 50.002">
  <g id="Products" transform="translate(0)">
    <path id="Path_111" data-name="Path 111" d="M-4305.678,402.25a6.407,6.407,0,0,1,4.561,1.889,6.406,6.406,0,0,1,1.89,4.561v32.6a6.407,6.407,0,0,1-1.89,4.561,6.406,6.406,0,0,1-4.561,1.889h-32.6a6.408,6.408,0,0,1-4.562-1.889,6.411,6.411,0,0,1-1.89-4.561V408.7a6.41,6.41,0,0,1,1.89-4.561,6.409,6.409,0,0,1,4.562-1.889h32.6m0-2.25h-32.6a8.7,8.7,0,0,0-8.7,8.7v32.6a8.7,8.7,0,0,0,8.7,8.7h32.6a8.7,8.7,0,0,0,8.7-8.7V408.7a8.7,8.7,0,0,0-8.7-8.7Z" transform="translate(4346.978 -400)" fill="#333"/>
    <rect id="Rectangle_60" data-name="Rectangle 60" width="4.322" height="1.728" transform="translate(17.599 39.723)" fill="#333"/>
    <path id="Path_112" data-name="Path 112" d="M-4063.433,945.6a.676.676,0,0,0-.561-.3h-6.483a.636.636,0,0,0-.583.369l-.369.713h-2.42l-.368-.713a.649.649,0,0,0-.583-.369h-11.671a.684.684,0,0,0-.563.3.649.649,0,0,0-.021.625l2.1,4.194v10.656a.636.636,0,0,0,.649.647h18.154a.636.636,0,0,0,.649-.647V950.415l2.1-4.194A.707.707,0,0,0-4063.433,945.6Zm-21.979.994h10.223l1.512,3.026H-4083.9Zm12.125,13.832h-10.375v-9.51h10.375Zm6.483,0h-5.185v-9.51h5.185Zm.238-10.806h-5.014l1.515-3.026h5.036Z" transform="translate(4100.236 -917.802)" fill="#333"/>
    <rect id="Rectangle_61" data-name="Rectangle 61" width="4.322" height="1.728" transform="translate(17.599 39.723)" fill="#333"/>
    <rect id="Rectangle_62" data-name="Rectangle 62" width="4.322" height="1.728" transform="translate(17.599 39.723)" fill="#333"/>
    <path id="Path_113" data-name="Path 113" d="M-3946.726,613.109l3.171-9.386a.207.207,0,0,0-.13-.261,5.165,5.165,0,0,0-6.539,3.237,5.165,5.165,0,0,0,3.237,6.54A.206.206,0,0,0-3946.726,613.109Z" transform="translate(3970.351 -593.005)" fill="#333"/>
    <path id="Path_114" data-name="Path 114" d="M-3855.518,622.519a5.227,5.227,0,0,0-2.506-6.038.2.2,0,0,0-.255.048.206.206,0,0,0-.006.26,5.718,5.718,0,0,1,.71,5.029,5.524,5.524,0,0,1-3.745,3.97.206.206,0,0,0-.16.208.205.205,0,0,0,.14.189.167.167,0,0,0,.035.008A5.214,5.214,0,0,0-3855.518,622.519Z" transform="translate(3885.789 -605.607)" fill="#333"/>
    <path id="Path_115" data-name="Path 115" d="M-3812.376,516.979a.549.549,0,0,0,.7-.345l.854-2.526a.549.549,0,0,0-.344-.7.55.55,0,0,0-.7.345l-.853,2.526A.549.549,0,0,0-3812.376,516.979Z" transform="translate(3839.472 -507.769)" fill="#333"/>
    <path id="Path_116" data-name="Path 116" d="M-3940.871,526.4a.549.549,0,0,0,.248-.736l-1.183-2.39a.55.55,0,0,0-.736-.249.55.55,0,0,0-.249.736l1.183,2.39A.55.55,0,0,0-3940.871,526.4Z" transform="translate(3963.063 -516.882)" fill="#333"/>
    <path id="Path_117" data-name="Path 117" d="M-4036.227,635.905a.549.549,0,0,0-.345-.7l-2.526-.853a.55.55,0,0,0-.7.344.551.551,0,0,0,.345.7l2.526.853A.55.55,0,0,0-4036.227,635.905Z" transform="translate(4055.193 -622.606)" fill="#333"/>
    <path id="Path_118" data-name="Path 118" d="M-4026.455,757.149a.55.55,0,0,0-.736-.248l-2.39,1.183a.55.55,0,0,0-.25.736.551.551,0,0,0,.737.249l2.389-1.183A.55.55,0,0,0-4026.455,757.149Z" transform="translate(4045.753 -738.992)" fill="#333"/>
    <path id="Path_119" data-name="Path 119" d="M-3916.963,826.691a.55.55,0,0,0-.7.345l-.854,2.526a.55.55,0,0,0,.345.7.55.55,0,0,0,.7-.345l.853-2.526A.551.551,0,0,0-3916.963,826.691Z" transform="translate(3939.972 -805.312)" fill="#333"/>
    <path id="Path_120" data-name="Path 120" d="M-3719.288,598.79c-.582-.389-.651-.576-.525-1.425a.145.145,0,0,0-.1-.158h0a.145.145,0,0,0-.173.067c-.416.752-.583.859-1.282.814a.145.145,0,0,0-.146.1.145.145,0,0,0,.056.166c.583.391.652.577.526,1.426a.145.145,0,0,0,.1.159h0a.145.145,0,0,0,.173-.068c.413-.751.581-.858,1.281-.815a.144.144,0,0,0,.146-.1A.144.144,0,0,0-3719.288,598.79Z" transform="translate(3752.807 -587.333)" fill="#e60000"/>
    <path id="Path_121" data-name="Path 121" d="M-3800.738,839.922c-.582-.39-.65-.576-.524-1.425a.145.145,0,0,0-.1-.159h0a.144.144,0,0,0-.172.067c-.417.751-.583.858-1.283.815a.143.143,0,0,0-.146.1.144.144,0,0,0,.056.167c.583.39.651.576.525,1.426a.145.145,0,0,0,.1.158h0a.145.145,0,0,0,.173-.067c.413-.751.581-.857,1.281-.815a.144.144,0,0,0,.146-.1A.142.142,0,0,0-3800.738,839.922Z" transform="translate(3830.181 -816.401)" fill="#e60000"/>
    <path id="Path_122" data-name="Path 122" d="M-3710.877,725.866c-.775-.549-.869-.824-.67-1.965a.145.145,0,0,0-.093-.161.144.144,0,0,0-.175.063c-.586,1-.836,1.149-1.782,1.066a.144.144,0,0,0-.148.094.144.144,0,0,0,.052.168c.777.549.871.824.672,1.966a.144.144,0,0,0,.093.161h0a.145.145,0,0,0,.172-.064c.583-1,.833-1.148,1.781-1.066a.144.144,0,0,0,.148-.095A.144.144,0,0,0-3710.877,725.866Z" transform="translate(3745.435 -707.531)" fill="#e60000"/>
  </g>
</svg>
