<svg id="Layer_1" data-name="Layer 1" xmlns="http://www.w3.org/2000/svg" viewBox="0 0 1000 1000"><defs><style>.cls-1{fill:#e60000;}</style></defs><title>Products_Red</title><g id="Path_586" data-name="Path 586"><path class="cls-1" d="M938.71,725.55V267.65a26,26,0,0,0-.93-6.75c0-.71-.6-1.36-.87-2.07a26.09,26.09,0,0,0-1.74-4.08c-.44-.71-1-1.31-1.52-2a26.46,26.46,0,0,0-2.56-3.32c-.54-.54-1.31-1-1.91-1.47a24.45,24.45,0,0,0-3.27-2.56h0L512.77,13.08a25.81,25.81,0,0,0-25.27,0L74.58,245.32h0a24.45,24.45,0,0,0-3.27,2.56c-.6.49-1.36.93-1.91,1.47a26.46,26.46,0,0,0-2.56,3.32c-.49.71-1.09,1.31-1.52,2a26,26,0,0,0-1.74,4.08c0,.71-.65,1.36-.87,2.07a25.1,25.1,0,0,0-1.42,6.81v457.9A25.76,25.76,0,0,0,74.2,747.88L487.12,986.76h0a23.69,23.69,0,0,0,4.9,2c.49,0,.93.44,1.42.54a25.7,25.7,0,0,0,13.29,0c.49,0,.93-.44,1.42-.54a23.69,23.69,0,0,0,4.9-2h0L926,747.88A25.76,25.76,0,0,0,938.71,725.55ZM500,65l142.34,80L282.1,347.64l-142.34-80ZM474.22,919.9l-361.3-209V311.75L474.22,515ZM500,470.49,334.87,377.32,695,174.75l165.27,92.9ZM887.14,710.85l-361.3,209V515l361.3-203.22Z"/><path class="cls-1" d="M500.08,1000a35.52,35.52,0,0,1-9.07-1.18,11.55,11.55,0,0,1-2-.71,33.54,33.54,0,0,1-6.61-2.75l-.19-.11L69.29,756.36a35.65,35.65,0,0,1-17.8-30.81V267.32l0-.32a34.9,34.9,0,0,1,1.92-9.33,12.8,12.8,0,0,1,.81-1.88l0-.09a35.94,35.94,0,0,1,2.4-5.62l.31-.54a19.75,19.75,0,0,1,1.59-2.18l.21-.26a36.34,36.34,0,0,1,3.36-4.33l.33-.35a17.69,17.69,0,0,1,2.42-2l.13-.09a34.34,34.34,0,0,1,4.19-3.23l.56-.34L482.7,4.53a35.83,35.83,0,0,1,34.87,0L931,237l.28.18a34.37,34.37,0,0,1,4.19,3.23l.12.09a17.72,17.72,0,0,1,2.42,2l.33.35a36.41,36.41,0,0,1,3.38,4.35l.2.25a19.72,19.72,0,0,1,1.59,2.18l.31.54A36,36,0,0,1,946,255a12.48,12.48,0,0,1,1.47,4,35.85,35.85,0,0,1,1.08,8.56V725.51a35.67,35.67,0,0,1-17.59,30.82l-413.06,239-.1.05a33.53,33.53,0,0,1-6.2,2.63,11.32,11.32,0,0,1-2.94,1A35.52,35.52,0,0,1,500.08,1000Zm-3.41-20a15.92,15.92,0,0,0,7.12-.07,11.53,11.53,0,0,1,1.76-.63,13.92,13.92,0,0,0,2.68-1.1L921.06,739.39a16,16,0,0,0,7.85-13.8V267.65a16.1,16.1,0,0,0-.51-3.9,13.48,13.48,0,0,1-.64-1.4l-.16-.45a16.38,16.38,0,0,0-.82-2l0-.06c-.3-.37-.72-.88-1.15-1.51l-.15-.23a16.67,16.67,0,0,0-1.18-1.59c-.44-.31-.88-.63-1.28-1l-.47-.41a14.67,14.67,0,0,0-1.72-1.37L508,21.62a16.1,16.1,0,0,0-15.66,0L79.71,253.68A14.66,14.66,0,0,0,78,255.06l-.47.41c-.4.33-.83.65-1.28,1A16.65,16.65,0,0,0,75.06,258l-.16.23c-.43.63-.85,1.13-1.15,1.5l0,.06c-.22.46-.42.92-.6,1.4a12.37,12.37,0,0,1-1.32,3.36,15.3,15.3,0,0,0-.7,3.44V725.55a16,16,0,0,0,8,13.83L491.92,978.22a13.91,13.91,0,0,0,2.31,1A11.27,11.27,0,0,1,496.67,980ZM516,936.9V509.24L896.94,295V716.5Zm19.61-416.18V902.9l341.69-197.7V328.52ZM484,936.9,103.11,716.5V295L484,509.24Zm-361.3-231.7L464.41,902.9V520.71L122.72,328.52ZM500,481.74,314.89,377.3,695,163.5,880.29,267.64ZM354.85,377.33,500,459.23,840.3,267.65,695,186Zm-72.74-18.44L119.76,267.65,500,53.72,662.37,145ZM159.76,267.64,282.1,336.39,622.37,145,500,76.22Z"/></g></svg>