<svg xmlns="http://www.w3.org/2000/svg" viewBox="0 0 1000 1000"><defs><style>.cls-1{fill:#e60000;}</style></defs><title>Professional_Red</title><g id="Group_954" data-name="Group 954"><path id="Path_575" data-name="Path 575" class="cls-1" d="M85.24,1000H914.68c0-48.22,5.3-166.1,5.3-182.18,0-80.38-5.3-166.1-63.42-225-31.72-37.5-79.14-53.58-126.78-75a413.8,413.8,0,0,0-68.6-21.44l-111,209c0-21.44-10.48-128.6,5.26-160.74l5.36-21.44H444.59l5.3,21.44c10.56,32.14,0,134,0,160.74l-105.76-209a413.54,413.54,0,0,0-68.64,21.44,325,325,0,0,0-126.78,69.64C90.72,646.36,85.3,732.1,80,812.48,80,823.12,85.24,951.78,85.24,1000Z"/><ellipse id="Ellipse_32" data-name="Ellipse 32" class="cls-1" cx="497.42" cy="234.04" rx="230.76" ry="234.04"/></g></svg>