<svg id="Layer_1" data-name="Layer 1" xmlns="http://www.w3.org/2000/svg" viewBox="0 0 1000 1000"><defs><style>.cls-1{fill:#cfcfcf;}</style></defs><title>Qoutations_Coma_99_Darker_Grey</title><path class="cls-1" d="M185.19,765.48c23.29-11,47.26-48.45,58.9-79s14.81-69.66,14.8-130.9H55.54A55.24,55.24,0,0,1,0,499.84V222.38c0-30.77,25.17-55.72,55.39-55.72H389.05c30.59,0,55.39,25.11,55.39,55.16v278.9c0,92.92-25.93,169.28-75.9,229.91s-118.14,88-183.36,102.7Z"/><path class="cls-1" d="M740.74,765.48c23.29-11,47.26-48.45,58.9-79s14.81-69.66,14.8-130.9H611.09a55.24,55.24,0,0,1-55.54-55.72V222.38c0-30.77,25.17-55.72,55.39-55.72H944.61c30.59,0,55.39,25.11,55.39,55.16v278.9c0,92.92-25.93,169.28-75.9,229.91s-118.14,88-183.36,102.7Z"/></svg>