<svg id="Layer_1" data-name="Layer 1" xmlns="http://www.w3.org/2000/svg" viewBox="0 0 1000 1000"><defs><style>.cls-1{fill:#cfcfcf;}</style></defs><title>Qoutations_Coma_66_Darker_Grey</title><path class="cls-1" d="M814.81,234.52c-23.29,11-47.26,48.45-58.9,79s-14.81,69.66-14.8,130.9H944.46A55.24,55.24,0,0,1,1000,500.16V777.62c0,30.77-25.17,55.72-55.39,55.72H610.95c-30.59,0-55.39-25.11-55.39-55.16V499.28c0-92.92,25.93-169.28,75.9-229.91s118.14-88,183.36-102.7Z"/><path class="cls-1" d="M259.26,234.52c-23.29,11-47.26,48.45-58.9,79s-14.81,69.66-14.8,130.9H388.91a55.24,55.24,0,0,1,55.54,55.72V777.62c0,30.77-25.17,55.72-55.39,55.72H55.39C24.8,833.33,0,808.22,0,778.17V499.28C0,406.36,25.93,330,75.9,269.37s118.14-88,183.36-102.7Z"/></svg>