<svg id="Layer_1" data-name="Layer 1" xmlns="http://www.w3.org/2000/svg" viewBox="0 0 1000 1000"><defs><style>.cls-1{fill:#f9f9f9;}</style></defs><title>Recommended_Light_Grey</title><path id="Path_531" data-name="Path 531" class="cls-1" d="M552.3.14a22.7,22.7,0,0,0-20.22,23.08v90.15a22.72,22.72,0,1,0,45.45,0V23.21A22.7,22.7,0,0,0,552.34.14ZM401.11,92.73a22.7,22.7,0,0,0-13.15,39L430.55,174a22.72,22.72,0,1,0,32-32.3L419.92,99.47A22.7,22.7,0,0,0,401.11,92.73Zm304.16,0a22.7,22.7,0,0,0-15.63,6.74L647,141.7A22.72,22.72,0,1,0,679,174l42.59-42.22a22.7,22.7,0,0,0-16.33-39ZM554.41,188.55A76.78,76.78,0,0,0,479.67,250a295.09,295.09,0,0,1-8.89,33,500.84,500.84,0,0,1-32.67,78.45A434.8,434.8,0,0,1,268.47,541.42H94.8a22.7,22.7,0,0,0-22.7,22.7h0c0,12.56-3.7,313.64-3.7,326.16A22.7,22.7,0,0,0,91.09,913H253.28a348.46,348.46,0,0,1,132,41.52A454.32,454.32,0,0,0,576,1000H780.05a93.63,93.63,0,0,0,87-99,105.38,105.38,0,0,0-4.63-22,99,99,0,0,0,47.56-86.6,107.67,107.67,0,0,0-6.37-35.48,108.49,108.49,0,0,0,.37-145.16,115.93,115.93,0,0,0,17-58.56,104.45,104.45,0,0,0-98-109.67H630.75V265.71a77,77,0,0,0-76.34-77.08Z"/></svg>