<?xml version="1.0" encoding="utf-8"?>
<!-- Generator: Adobe Illustrator 21.0.0, SVG Export Plug-In . SVG Version: 6.00 Build 0)  -->
<svg version="1.1" id="Layer_1" xmlns="http://www.w3.org/2000/svg" xmlns:xlink="http://www.w3.org/1999/xlink" x="0px" y="0px"
	 viewBox="0 0 1000 1000" style="enable-background:new 0 0 1000 1000;" xml:space="preserve">
<style type="text/css">
	.st0{fill:#E60000;}
</style>
<title>Inbox_1_Dark</title>
<g id="Group_593">
	<path id="Path_582" class="st0" d="M974.7,414.3H662.9c-14,0.2-25.4,11.5-25.7,25.5v116.7c0,8.8-7.1,16-15.9,16.1c0,0,0,0-0.1,0
		H379.3c-8.8,0.3-16.2-6.7-16.4-15.5c0,0,0,0,0-0.1c0-0.2,0-0.3,0-0.5V439.8c-0.4-14-11.7-25.3-25.7-25.5H25.3
		c-14,0.2-25.2,11.5-25.3,25.5v352.3c0.8,60,49.7,108.1,109.7,107.9h780.6c60,0.3,109-47.9,109.7-107.9V439.8
		C999.9,425.8,988.7,414.5,974.7,414.3z M949.4,792.1c-0.4,32.4-26.7,58.4-59.1,58.5H109.7c-32.4-0.1-58.7-26.1-59.1-58.5V463.6
		h261.6v93c0.4,36.5,30.3,65.9,66.9,65.5c0,0,0,0,0,0h241.6c36.5,0.5,66.6-28.7,67.1-65.2c0,0,0,0,0,0v-93.2h261.6L949.4,792.1z"/>
	<g id="Group_592">
		<path id="Path_572" class="st0" d="M500,100c7.8-0.1,14.2,6.1,14.3,13.9c0,0.1,0,0.3,0,0.4V400c0.2,7.9-6,14.5-13.9,14.7
			c-7.9,0.2-14.5-6-14.7-13.9c0-0.3,0-0.5,0-0.8V114.3c-0.1-7.8,6.1-14.2,13.9-14.3H500z"/>
		<path id="Path_573" class="st0" d="M611.8,300.3c6.4,0.4,12,4.4,14.5,10.3c4.7,9.2,2.2,20.4-5.9,26.8l-103.3,71
			c-11.8,8-27.4,7.7-38.8-0.8l-98.7-71c-8.1-6.4-10.6-17.6-5.9-26.8c2.8-7.7,11.4-11.6,19.1-8.8c1.2,0.4,2.3,1,3.3,1.7l98.6,71.1
			c2,1.6,3.9,1.6,5.3,0l103.3-71C605.9,301.3,608.8,300.5,611.8,300.3z"/>
	</g>
</g>
</svg>
