<svg id="Layer_1" data-name="Layer 1" xmlns="http://www.w3.org/2000/svg" viewBox="0 0 1000 1000"><defs><style>.cls-1{fill:#fff;}</style></defs><title>Report_White</title><g id="Group_620" data-name="Group 620"><path id="Path_578" data-name="Path 578" class="cls-1" d="M911.63,1,468,137.88,422.2,77.11a17.43,17.43,0,0,0-20-5.39L195.34,134.46a17.58,17.58,0,0,0-11.93,11.3,16.47,16.47,0,0,0,3,16.24L470.89,539.59a22.16,22.16,0,0,0,14.79,7.35,25.78,25.78,0,0,0,10.85-3.64,6.65,6.65,0,0,0,3.25-4.76L603.84,378.47,642,429.15a22.16,22.16,0,0,0,14.79,7.35,25.78,25.78,0,0,0,10.85-3.64,6.65,6.65,0,0,0,3.25-4.76L931.71,27.39A16.84,16.84,0,0,0,912.06,1.31Z"/><g id="Path_579" data-name="Path 579"><path class="cls-1" d="M95.74,170.94,696.59,968.4a18.13,18.13,0,1,0,29-21.83L124.71,149.11C146.37,123.73,65.67,182.22,95.74,170.94Z"/><path class="cls-1" d="M711.12,1000a42.49,42.49,0,0,1-34-16.92l-593-787a25.07,25.07,0,0,1-16.7-12.74c-1.87-3.55-7.1-16.17,4.06-29.77A69.23,69.23,0,0,1,79,145.94a204.17,204.17,0,0,1,17.5-13.66,155.84,155.84,0,0,1,14-8.87c19.24-10.46,30.69-2.57,35.81,3.06a25.44,25.44,0,0,1,6.37,19.3L745,931.9a42.5,42.5,0,0,1-33.91,68.1Z"/></g></g></svg>