<svg xmlns="http://www.w3.org/2000/svg" width="50" height="50" viewBox="0 0 50 50">
  <g id="Reviews" transform="translate(0)">
    <path id="Path_123" data-name="Path 123" d="M441.3,402.25a6.45,6.45,0,0,1,6.45,6.45v32.6a6.45,6.45,0,0,1-6.45,6.45H408.7a6.45,6.45,0,0,1-6.45-6.45V408.7a6.45,6.45,0,0,1,6.45-6.45h32.6m0-2.25H408.7a8.7,8.7,0,0,0-8.7,8.7v32.6a8.7,8.7,0,0,0,8.7,8.7h32.6a8.7,8.7,0,0,0,8.7-8.7V408.7a8.7,8.7,0,0,0-8.7-8.7Z" transform="translate(-400 -400)" fill="#333"/>
    <path id="Path_124" data-name="Path 124" d="M683.273,841.44a.8.8,0,0,1-.372-.092l-1.442-.758-1.442.758a.8.8,0,0,1-1.157-.841l.275-1.605-1.166-1.137a.8.8,0,0,1,.442-1.36l1.612-.234.721-1.461a.792.792,0,0,1,.715-.445h0a.793.793,0,0,1,.715.445l.721,1.461,1.612.234a.8.8,0,0,1,.442,1.36l-1.166,1.137.275,1.605a.8.8,0,0,1-.785.933Zm-1.916-6.327Z" transform="translate(-663.841 -812.55)" fill="#333"/>
    <path id="Path_125" data-name="Path 125" d="M848.641,841.44a.8.8,0,0,1-.372-.092l-1.442-.758-1.442.758a.8.8,0,0,1-1.157-.841l.275-1.605-1.166-1.137a.8.8,0,0,1,.442-1.36l1.612-.234.721-1.461a.792.792,0,0,1,.715-.445h0a.792.792,0,0,1,.715.445l.721,1.461,1.612.234a.8.8,0,0,1,.442,1.36l-1.166,1.137.275,1.605a.8.8,0,0,1-.785.933Zm-1.916-6.327Z" transform="translate(-820.939 -812.55)" fill="#333"/>
    <path id="Path_126" data-name="Path 126" d="M1026.394,823.542a.944.944,0,0,1-.44-.109l-1.707-.9-1.707.9a.944.944,0,0,1-1.37-1l.326-1.9-1.381-1.346a.944.944,0,0,1,.523-1.611l1.909-.277.854-1.73a.939.939,0,0,1,.847-.526h0a.938.938,0,0,1,.847.526l.854,1.73,1.909.277a.944.944,0,0,1,.523,1.611L1027,820.536l.326,1.9a.946.946,0,0,1-.93,1.1Zm-2.148-2.226,1.968,1.034-.376-2.191,1.592-1.552-2.2-.32-.984-1.993-.984,1.993-2.2.32,1.592,1.552-.376,2.191Zm-.121-5.266h0Z" transform="translate(-988.833 -794.292)" fill="#e60000"/>
    <path id="Path_127" data-name="Path 127" d="M517.905,841.44a.8.8,0,0,1-.372-.092l-1.442-.758-1.442.758a.8.8,0,0,1-1.157-.841l.275-1.605-1.166-1.137a.8.8,0,0,1,.442-1.36l1.612-.234.721-1.461a.792.792,0,0,1,.715-.445h0a.793.793,0,0,1,.715.445l.721,1.461,1.612.234a.8.8,0,0,1,.442,1.36l-1.166,1.137.275,1.605a.8.8,0,0,1-.785.933Zm-1.916-6.327Z" transform="translate(-506.745 -812.55)" fill="#333"/>
    <path id="Path_128" data-name="Path 128" d="M1104.7,1040.739a.562.562,0,0,1-.562-.562v-2.684a.562.562,0,0,1,1.125,0v2.684A.562.562,0,0,1,1104.7,1040.739Z" transform="translate(-1068.927 -1005.083)" fill="#e60000"/>
    <path id="Path_129" data-name="Path 129" d="M1104.7,690.673a.562.562,0,0,1-.562-.562v-2.684a.562.562,0,0,1,1.125,0v2.684A.562.562,0,0,1,1104.7,690.673Z" transform="translate(-1068.927 -672.521)" fill="#e60000"/>
    <path id="Path_130" data-name="Path 130" d="M1211.37,996.551a.561.561,0,0,1-.4-.165l-1.9-1.9a.562.562,0,0,1,.8-.8l1.9,1.9a.563.563,0,0,1-.4.96Z" transform="translate(-1168.46 -963.851)" fill="#e60000"/>
    <path id="Path_131" data-name="Path 131" d="M963.84,749.022a.561.561,0,0,1-.4-.165l-1.9-1.9a.562.562,0,0,1,.8-.8l1.9,1.9a.562.562,0,0,1-.4.96Z" transform="translate(-933.31 -728.698)" fill="#e60000"/>
    <path id="Path_132" data-name="Path 132" d="M1255.558,889.878h-2.684a.562.562,0,1,1,0-1.125h2.684a.562.562,0,1,1,0,1.125Z" transform="translate(-1209.693 -864.315)" fill="#e60000"/>
    <path id="Path_133" data-name="Path 133" d="M1209.472,749.021a.562.562,0,0,1-.4-.96l1.9-1.9a.562.562,0,1,1,.8.8l-1.9,1.9A.56.56,0,0,1,1209.472,749.021Z" transform="translate(-1168.46 -728.698)" fill="#e60000"/>
    <path id="Path_134" data-name="Path 134" d="M961.942,996.546a.562.562,0,0,1-.4-.96l1.891-1.89a.562.562,0,0,1,.967.39v.233l-.165.165-1.9,1.9A.561.561,0,0,1,961.942,996.546Z" transform="translate(-933.31 -963.846)" fill="#e60000"/>
  </g>
</svg>
