<svg xmlns="http://www.w3.org/2000/svg" width="50" height="50" viewBox="0 0 50 50">
  <g id="Sales" transform="translate(0)">
    <g id="OBJECTS">
      <g id="Group_214" data-name="Group 214">
        <g id="Group_208" data-name="Group 208">
          <g id="Group_207" data-name="Group 207">
            <path id="Path_135" data-name="Path 135" d="M-1834.587,402.25a6.408,6.408,0,0,1,4.561,1.889,6.408,6.408,0,0,1,1.889,4.561v32.6a6.408,6.408,0,0,1-1.889,4.561,6.408,6.408,0,0,1-4.561,1.889h-32.6a6.408,6.408,0,0,1-4.561-1.889,6.408,6.408,0,0,1-1.889-4.561V408.7a6.408,6.408,0,0,1,1.889-4.561,6.408,6.408,0,0,1,4.561-1.889h32.6m0-2.25h-32.6a8.7,8.7,0,0,0-8.7,8.7v32.6a8.7,8.7,0,0,0,8.7,8.7h32.6a8.7,8.7,0,0,0,8.7-8.7V408.7a8.7,8.7,0,0,0-8.7-8.7Z" transform="translate(1875.887 -400)" fill="#333"/>
          </g>
        </g>
        <g id="Group_213" data-name="Group 213" transform="translate(5.691 10.358)">
          <g id="Group_209" data-name="Group 209">
            <path id="Path_136" data-name="Path 136" d="M-1732.234,628.117l-6.442-19.706a1.715,1.715,0,0,0-2.179-1.111,1.768,1.768,0,0,0-1.087,2.226l.489,1.5-16.791,11.912a2.115,2.115,0,0,0-2.365-.734,2.206,2.206,0,0,0-1.357,2.776l1.541,4.714a2.136,2.136,0,0,0,2.716,1.384,2.183,2.183,0,0,0,1.459-2.037l2.168-.087a3.517,3.517,0,0,0-.024.751,3.425,3.425,0,0,0,3.672,3.167l2.529-.219a3.358,3.358,0,0,0,.79-.168,3.466,3.466,0,0,0,2.307-3.588c-.009-.1-.039-.2-.056-.3l5.885-.233-1-2.482,0,0c-.124-.306-.354-.874.01-1.266a.857.857,0,0,1,1.135-.123l.027.017c.035.025.172.106.248.148,1.735.95,3.447,1.89,5.158,2.829Zm-15.808,2.871-2.53.219a1.78,1.78,0,0,1-1.91-1.648,1.861,1.861,0,0,1,.073-.675l5.9-.229a1.752,1.752,0,0,1,.075.38A1.819,1.819,0,0,1-1748.041,630.988Zm-8.3-5.312-.5-1.534,14.187-10.063,2.035,6.227Z" transform="translate(1762.076 -607.209)" fill="#333"/>
          </g>
          <g id="Group_211" data-name="Group 211" transform="translate(23.239 18.617)">
            <g id="Group_210" data-name="Group 210">
              <path id="Path_137" data-name="Path 137" d="M-1286.781,989.955a.086.086,0,0,1,0,.119c-.24.253-.5.534-.726.776h0a.129.129,0,0,1-.188,0c-.824-.869-2.367-2.544-3.135-3.383l-.13-.137-.495-.521a.128.128,0,0,0-.2.017l-.346.516-.049.071c-.034.051-.07.1-.106.16l-.524.848-.35.567a.36.36,0,0,1-.64-.054c-1.031-2.55-2.068-5.125-3.074-7.626l-.007-.018-.521-1.292a.361.361,0,0,1,.508-.451l3.662,2.01,1.956,1.073,2.687,1.474a.36.36,0,0,1-.03.646h0l-1.231.533-.169.077-.7.32a.128.128,0,0,0-.042.2l.451.5C-1290.154,986.412-1287.694,989-1286.781,989.955Z" transform="translate(1297.297 -979.503)" fill="#333" fill-rule="evenodd"/>
            </g>
          </g>
          <g id="Group_212" data-name="Group 212" transform="translate(26.859 0.245)">
            <path id="Path_145" data-name="Path 145" d="M.748-.005H6.27a.753.753,0,0,1,0,1.505H.748A.753.753,0,0,1,0,.748H0A.753.753,0,0,1,.748-.005Z" transform="matrix(0.964, -0.267, 0.267, 0.964, 2.701, 8.694)" fill="#e60000"/>
            <path id="Path_146" data-name="Path 146" d="M.744-.008H6.268a.753.753,0,1,1,0,1.505H.744a.753.753,0,1,1,0-1.505Z" transform="matrix(0.493, -0.87, 0.87, 0.493, 0, 6.154)" fill="#e60000"/>
            <path id="Path_147" data-name="Path 147" d="M.762.071H6.285a.753.753,0,0,1,0,1.505H.762a.753.753,0,0,1,0-1.505Z" transform="translate(2.845 12.329) rotate(29.542)" fill="#e60000"/>
          </g>
        </g>
      </g>
    </g>
  </g>
</svg>
