<svg xmlns="http://www.w3.org/2000/svg" viewBox="0 0 366.14 532.75"><defs><style>.cls-1{isolation:isolate;}.cls-2{fill:#f0c17d;}.cls-10,.cls-11,.cls-12,.cls-13,.cls-14,.cls-2,.cls-3,.cls-4,.cls-5,.cls-6,.cls-7,.cls-8,.cls-9{fill-rule:evenodd;}.cls-3{fill:#e0af6a;}.cls-4{fill:#ffdba7;}.cls-5,.cls-7{fill:#ededed;}.cls-15,.cls-6{fill:#333;}.cls-11,.cls-7,.cls-9{mix-blend-mode:multiply;}.cls-8,.cls-9{fill:#e60000;}.cls-10,.cls-11{fill:#e0e0e0;}.cls-12{fill:#454545;}.cls-13{fill:#f7f7f7;}.cls-14{fill:#ffe3ba;}.cls-16{fill:#cfcfcf;}.cls-17{fill:#fff;}</style></defs><title>Char</title><g class="cls-1"><g id="Layer_1" data-name="Layer 1"><path class="cls-2" d="M1007.6,560.73c2.63,7,13.34,15.47,25.68,20,45.27,16.48,59.54,15.28,73.95,57.45-19.56,20.8-38.4,37.41-65.27,48.34H891.35a200.28,200.28,0,0,1-65.41-43.22c1.16-72.89,81.52-30.53,100.46-82.54,3.56-9.78,3.72-25.11,1.46-35.22l39.15.76,39.15-.76C1003.89,535.62,1003.93,551,1007.6,560.73Z" transform="translate(-783.51 -371.7)"/><path class="cls-3" d="M1007.6,560.73c2.11,5.6,9.32,12.43,18.83,16.57,46.92,20.43,75.57,19.23,80.57,60.85-19.56,20.8-38.17,37.41-65.05,48.34H966.59V526.25h.4l39.15-.76C1003.89,535.62,1003.93,551,1007.6,560.73Z" transform="translate(-783.51 -371.7)"/><path class="cls-4" d="M967.6,549c-.22,0-.44,0-.66,0-8.14.05-12.18-.08-16.6-1.95-4.27-1.82-6.34-6-12.22-11.67-5-4.81-14-9.72-16.16-15-2.66-6.38-2-13.34-3.16-22.62-4.64,2.55-9.6-10.72-10.59-15.08-1.45-6.42-6.08-17.35-7.53-24.68-.83-4.2-.33-7.54,1.09-8.59,3.1-2.3,6.28-1,11,5.59-.27-9.27-.4-17.09.77-23.83,6.4-36.73,96.16-57.32,106.22-.17,1.18,6.74,1.08,14.58.82,23.88,4.63-6.43,7.79-7.75,10.87-5.46,1.41,1.05,1.91,4.39,1.09,8.59-1.44,7.33-6.07,18.26-7.52,24.68-1,4.31-5.84,17.33-10.43,15.16-1,9-.47,15.77-3,22.06-2.18,5.27-11.09,10.24-16.05,15.1-5.85,5.73-7.91,9.93-12.16,11.82S975.13,549,967.6,549Z" transform="translate(-783.51 -371.7)"/><path class="cls-5" d="M1011.78,566.27l.38.28c23.41,16.82,68.58,9,91.15,36.58-6,22.47-14.9,106.09-14.9,106.09l-25,137.12,11.55,54.7-107.38,3.41L860.16,903l9.76-56.62L844.87,709.22s-13.6-91.14-19.58-113.61c10.7-5.79,25-8.33,37.65-11.88,21.17-5.93,44.66-6.8,59.11-18l44.78,34.38Z" transform="translate(-783.51 -371.7)"/><path class="cls-2" d="M967.6,549c-.22,0-.44,0-.66,0h-.35V395.8c24.06-2.12,48.19,7.19,53.13,35.24,1.18,6.74,1.08,14.58.82,23.88,4.63-6.43,7.79-7.75,10.87-5.46,1.41,1.05,1.91,4.39,1.09,8.59-1.44,7.33-6.07,18.26-7.52,24.68-1,4.31-5.84,17.33-10.43,15.16-1,9-.47,15.77-3,22.06-2.18,5.27-11.09,10.24-16.05,15.1-5.85,5.73-7.91,9.93-12.16,11.82S975.13,549,967.6,549Z" transform="translate(-783.51 -371.7)"/><path class="cls-6" d="M923.6,415.08c-7.26,8.7-5,56.75-4.49,68.53-8.26-30-13-54.22-7.73-73,12.89-45.68,87.3-50.57,107.68-9.84,9.4,18.79,3.6,49.08-2.41,76.56-.19-13.59.06-46.07-5-59.8-4.45-12.46-9.17-24.24-45.08-10.5C956.82,410.8,933.82,405.69,923.6,415.08Z" transform="translate(-783.51 -371.7)"/><path class="cls-7" d="M1088.41,709.25l-25,137.08L1074.93,901l-107.38,3.39h-.95V600.2l45.18-33.86.38.28c15.82,11.37,41.6,11.48,63.61,18.86C1086.32,589,1098,592.3,1106,597,1100,619.49,1088.41,709.25,1088.41,709.25Z" transform="translate(-783.51 -371.7)"/><polygon class="cls-8" points="205.33 239.16 183.08 234.41 183.07 234.41 160.81 239.16 156.06 245.77 172.21 275.64 183.07 275.64 183.08 275.64 193.94 275.64 210.09 245.77 205.33 239.16"/><polygon class="cls-9" points="210.09 245.76 193.94 275.64 183.08 275.64 183.08 234.42 205.34 239.15 210.09 245.76"/><path class="cls-10" d="M1005.83,550.82c1.17,8.24,3.67,12,9.16,16.18l-7.2,56.42L966.6,606.11C977.18,590.36,1001,557,1005.83,550.82Z" transform="translate(-783.51 -371.7)"/><path class="cls-11" d="M1005.83,550.82c1.17,8.24,3.67,12,9.16,16.18l-7.2,56.42L966.6,606.11C977.18,590.36,1001,557,1005.83,550.82Z" transform="translate(-783.51 -371.7)"/><path class="cls-10" d="M927.34,550.82c-1.17,8.24-3.67,12-9.16,16.18l7.2,56.42,41.19-17.31C956,590.36,932.17,557,927.34,550.82Z" transform="translate(-783.51 -371.7)"/><path class="cls-12" d="M945.53,371.7c25.12,8.51,50.06,2.26,60.53,33.5-17.73-10.93-65.48,16.74-79.25,2.24C922,402.36,923.66,388.66,945.53,371.7Z" transform="translate(-783.51 -371.7)"/><path class="cls-13" d="M855.57,520.25c-17.8,38.61-109,141.46-55.38,165.21,12.31,5.46,30.27,3.37,39.81-7.86C867,647,879.09,595.4,896.33,533.37,875.78,531,869.49,525.32,855.57,520.25Z" transform="translate(-783.51 -371.7)"/><path class="cls-14" d="M887.75,465.87,900,455.4l8.62-14.28c4.14-6.87-6.74-13.58-10.87-6.73L884.08,457c-1.72,2.86-1,6.9,2,8.33h0Z" transform="translate(-783.51 -371.7)"/><path class="cls-14" d="M898.08,440.68,910.83,442l12.89-3.87c6.2-1.86,3.85-14.32-2.32-12.47L901,431.82c-2.58.78-4.44,4.14-3.55,7.28h0Z" transform="translate(-783.51 -371.7)"/><path class="cls-14" d="M892.37,530.16l20.52-9.85,19.53-13.57c9-2.43,5.23-16.75-3.7-14.33l-29.47,8c-3.73,1-6.35,5-5,8.59h0Z" transform="translate(-783.51 -371.7)"/><path class="cls-14" d="M881.45,464.22l-1.52,7.87-.8,13.69-2,16.14c0,1-20.25,21.06-20.19,23.59.14,6.22,31.49,8.62,33.58,8.88,0,0,1.86-3.51,7-7.46,1.82-1.4,5.07-3.8,5.24-7.07.48-9.1-1.58-16.6,3.74-25.24,4.32-7,6.37-39.47-.86-39.23-3.89.13-7.79,0-11.68,0C883.15,455.48,883.45,458.09,881.45,464.22Z" transform="translate(-783.51 -371.7)"/><path class="cls-13" d="M1077.6,520.25c17.8,38.61,109,141.46,55.38,165.21-12.31,5.46-30.27,3.37-39.81-7.86-26.95-30.63-39.09-82.21-56.33-144.24C1057.39,531,1063.68,525.32,1077.6,520.25Z" transform="translate(-783.51 -371.7)"/><path class="cls-14" d="M1045.42,465.87l-12.2-10.47-8.62-14.28c-4.14-6.87,6.74-13.58,10.87-6.73L1049.1,457c1.72,2.86,1,6.9-2,8.33h0Z" transform="translate(-783.51 -371.7)"/><path class="cls-14" d="M1035.1,440.68,1022.34,442l-12.89-3.87c-6.2-1.86-3.85-14.32,2.32-12.47l20.38,6.11c2.58.78,4.44,4.14,3.55,7.28h0Z" transform="translate(-783.51 -371.7)"/><path class="cls-14" d="M1040.81,530.16l-20.52-9.85-19.53-13.57c-9-2.43-5.23-16.75,3.7-14.33l29.47,8c3.73,1,6.35,5,5,8.59h0Z" transform="translate(-783.51 -371.7)"/><path class="cls-14" d="M1051.72,464.22l1.52,7.87.8,13.69,2,16.14c0,1,20.25,21.06,20.19,23.59-.14,6.22-31.49,8.62-33.58,8.88,0,0-1.86-3.51-7-7.46-1.82-1.4-5.07-3.8-5.24-7.07-.48-9.1,1.58-16.6-3.74-25.24-4.32-7-6.37-39.47.86-39.23,3.89.13,7.79,0,11.68,0C1050,455.48,1049.72,458.09,1051.72,464.22Z" transform="translate(-783.51 -371.7)"/><polygon class="cls-8" points="183.08 532.72 203.42 510.03 193.94 275.64 183.07 275.64 172.2 275.64 162.73 510.03 183.08 532.72"/><polygon class="cls-9" points="193.94 275.64 203.42 510.03 183.06 532.75 183.07 275.64 193.94 275.64"/><path class="cls-15" d="M980.58,459.82c-5.28-6.19-11.47-9.93-15.27-9.57-3.8-.37-10,3.37-15.27,9.57-6.42,7.53-9.05,15.82-5.88,18.53s10.94-1.21,17.36-8.74c1.48-1.74,6.09-1.74,7.57,0,6.42,7.53,14.2,11.44,17.37,8.74S987,467.35,980.58,459.82Z" transform="translate(-783.51 -371.7)"/><circle class="cls-15" cx="139.34" cy="95.91" r="32.46"/><circle class="cls-16" cx="139.34" cy="95.56" r="26.53"/><ellipse class="cls-17" cx="915.7" cy="453.64" rx="11.52" ry="5.93" transform="translate(-885.92 170) rotate(-31.3)"/><circle class="cls-15" cx="224.59" cy="95.91" r="32.46"/><ellipse class="cls-16" cx="224.59" cy="95.56" rx="26.52" ry="26.53"/><ellipse class="cls-17" cx="1000.95" cy="453.64" rx="11.52" ry="5.93" transform="translate(-873.52 214.29) rotate(-31.3)"/></g></g></svg>