<svg id="Layer_1" data-name="Layer 1" xmlns="http://www.w3.org/2000/svg" viewBox="0 0 1000 1000"><defs><style>.cls-1{fill:#e60000;}</style></defs><title>Services_Red</title><path id="Path_133" data-name="Path 133" class="cls-1" d="M605.07,120.72a332.36,332.36,0,0,1,96.81,38l55.51-55.52a31.47,31.47,0,0,1,41.52,0L906.1,210.44a31.48,31.48,0,0,1,0,41.53l-55.51,55.52a332.48,332.48,0,0,1,38.25,96.71H972.1a28.26,28.26,0,0,1,27.9,28.61q0,1.27-.15,2.54V584.08A31,31,0,0,1,969,615.22H892.27A480.84,480.84,0,0,1,850.75,712l55.51,55.52a31.48,31.48,0,0,1,0,41.53L799.07,916.3a31.47,31.47,0,0,1-41.52,0L702,860.78a332.36,332.36,0,0,1-96.81,38v83.28a28.26,28.26,0,0,1-28.6,27.91q-1.27,0-2.54-.15H425.38A31,31,0,0,1,394.24,979q0-.17,0-.33V902.42a480.67,480.67,0,0,1-96.81-41.53l-55.51,55.52a31.47,31.47,0,0,1-41.52,0L93.38,809a31.48,31.48,0,0,1,0-41.53L148.89,712a332.48,332.48,0,0,1-38.19-96.82H27.77A30.48,30.48,0,0,1,0,584V435.45a31,31,0,0,1,30.7-31.26h80a332.48,332.48,0,0,1,38-96.82L93.21,251.85a31.48,31.48,0,0,1,0-41.53L200.62,103.4a31.47,31.47,0,0,1,41.52,0l55.51,55.52a332.36,332.36,0,0,1,96.48-38.2V37.77A30.48,30.48,0,0,1,425.38,10H574.09a31,31,0,0,1,31,31q0,.08,0,.17Zm-34.58,51.91a30.31,30.31,0,0,1-24.2-31.15V68.81h-93.2v72.62a33.31,33.31,0,0,1-24.2,31.15A292.9,292.9,0,0,0,311.25,221a31.47,31.47,0,0,1-38-3.44l-51.9-52.08-65.89,65.9,51.9,51.91a26.6,26.6,0,0,1,3.44,34.59A330,330,0,0,0,162.38,439a30.31,30.31,0,0,1-31.14,24.21H58.8v93.38H131.4a33.31,33.31,0,0,1,31.14,24.21,293,293,0,0,0,48.4,117.7,31.48,31.48,0,0,1-3.44,38l-51.9,51.91,65.72,65.51L273.23,802a26.59,26.59,0,0,1,34.58-3.44A329.81,329.81,0,0,0,428.88,847a30.31,30.31,0,0,1,24.2,31.15v72.62h93.37V878.22a26.7,26.7,0,0,1,24.2-27.76,359.23,359.23,0,0,0,117.68-52.08,31.47,31.47,0,0,1,38,3.44l51.9,51.91,65.5-65.46-51.9-51.91a26.21,26.21,0,0,1-3.44-34.59,307.77,307.77,0,0,0,48.4-121.09A30.31,30.31,0,0,1,868,556.49h72.61V463.16h-72.5A26.7,26.7,0,0,1,840.32,439a359.35,359.35,0,0,0-52.07-117.64,31.48,31.48,0,0,1,3.44-38l51.9-51.91-65.45-65.9-51.9,51.91a26.59,26.59,0,0,1-34.58,3.44,307.66,307.66,0,0,0-121-48.25Z"/><path id="Path_134" data-name="Path 134" class="cls-1" d="M501.49,289c122,1,220,100.6,219.08,222.58S620,731.64,498,730.69c-120.6-.94-218.14-98.5-219.08-219.12C276.94,390.66,373.31,291,494.21,289Q497.85,288.94,501.49,289Zm0,59.13A161.73,161.73,0,1,0,661.41,511.61v0A163.27,163.27,0,0,0,501.49,348.12Z"/></svg>