<svg id="Layer_1" data-name="Layer 1" xmlns="http://www.w3.org/2000/svg" viewBox="0 0 1000 1000"><defs><style>.cls-1{fill:#fff;}</style></defs><title>Settings_White</title><g id="noun_Settings_229629" data-name="noun Settings 229629"><g id="Group_373" data-name="Group 373"><path id="Path_148" data-name="Path 148" class="cls-1" d="M710.92,1000a18.26,18.26,0,0,0,5.67-.92l21-7q26.37-8.73,52.73-17.51a18.18,18.18,0,0,0,11.55-22.17l-14.95-62.31a287.51,287.51,0,0,0,72.93-63l59.54,23.6a18.56,18.56,0,0,0,5.12,1.18,16.42,16.42,0,0,0,2.94.21,17.17,17.17,0,0,0,15.49-9.78l34.68-69.44A18.22,18.22,0,0,0,970.14,749L935,727.43l-19.31-11.84a287,287,0,0,0,6.84-96.23l58.78-25.19a18.14,18.14,0,0,0,10.79-22.55c-8.15-24.56-16.29-49.21-24.48-73.68a18.39,18.39,0,0,0-22.17-11.67l-7.56,1.81-54.58,13.1A286.72,286.72,0,0,0,820.09,428c6.76-17.13,13.6-34.34,20.4-51.47l3.15-8a18.14,18.14,0,0,0-8.4-23.55L765.5,310.14a18.47,18.47,0,0,0-23.85,7.47l-33.59,54.58a289.24,289.24,0,0,0-96.27-6.89L586.6,306.52A18.68,18.68,0,0,0,564,295.78l-73.64,24.56a18.1,18.1,0,0,0-11.67,22.17l14.9,62.26a285.25,285.25,0,0,0-72.89,63l-59.45-23.6a18.56,18.56,0,0,0-23.6,8.4L302.91,522a18.31,18.31,0,0,0,7.52,23.93q27.21,16.79,54.58,33.59a285.5,285.5,0,0,0-6.76,96.15l-58.78,25.19a18.18,18.18,0,0,0-10.75,22.59l24.56,73.68a17.8,17.8,0,0,0,17.3,12.22,20.11,20.11,0,0,0,4.83-.59l5.88-1.39,56.34-13.52a285.5,285.5,0,0,0,63,72.93l-23.55,59.54a18.18,18.18,0,0,0,8.4,23.55l69.4,34.76a18.43,18.43,0,0,0,23.93-7.47l33.59-54.58a288,288,0,0,0,96.23,6.8l25.19,58.78A18.77,18.77,0,0,0,710.92,1000ZM680.32,892a13.89,13.89,0,0,0-2.23,0,260.31,260.31,0,0,1-109.92-7.73,18.1,18.1,0,0,0-19.9,8.94L516.4,945.08l-40-20h0l22.42-56.51a21,21,0,0,0,1.43-5.42,16.79,16.79,0,0,0-6.26-16,259.35,259.35,0,0,1-72.13-83,18.14,18.14,0,0,0-20.49-8.06l-59.2,14.19L328.1,727.89h0l3.82-1.64q26-11.29,52.15-22.46a18.05,18.05,0,0,0,11.5-18.64,260.81,260.81,0,0,1,7.85-109.83,16.79,16.79,0,0,0-4.2-15.91,21.37,21.37,0,0,0-4.83-4.2l-51.94-31.83,2.14-4.2,17.89-35.69L419.08,506A18.26,18.26,0,0,0,440.33,501a259.39,259.39,0,0,1,83.17-72,18,18,0,0,0,8-20.49l-12.6-52.06c-.55-2.35-1.13-4.74-1.68-7.1h0l42.36-14.11h0l18.94,43.83,5.21,12a18.1,18.1,0,0,0,18.6,11.55,259.34,259.34,0,0,1,109.88,7.94,18.14,18.14,0,0,0,19.9-8.94L764,349.77l40,20h0l-22.42,56.55a20.74,20.74,0,0,0-1.39,5.42,19.28,19.28,0,0,0,0,4.2,16,16,0,0,0,6.3,11.55,259.76,259.76,0,0,1,72.13,83.17,15.54,15.54,0,0,0,2.65,3.27c.34.34.55.76.88,1a19.19,19.19,0,0,0,16.79,3.65l59.24-14.15,14.15,42.36h0l-56,24.1a17.89,17.89,0,0,0-11.55,18.6,260.31,260.31,0,0,1-7.85,109.79,16.79,16.79,0,0,0,4.2,16,21.5,21.5,0,0,0,4.83,4.2l51.85,31.83h0l-19.94,40-56.6-22.46a18.26,18.26,0,0,0-21.33,4.83,259.47,259.47,0,0,1-83.26,72.17,17,17,0,0,0-8.4,14.19,21.92,21.92,0,0,0,.55,6.26l14.23,59.2h0l-42.45,14.15q-8.9-20.7-17.8-41.27l-6.34-14.65a21,21,0,0,0-5.12-7A16.46,16.46,0,0,0,680.23,892Zm100.18-460.2a19.28,19.28,0,0,0,0,4.2,20.7,20.7,0,0,1-.08-4.2Zm-704.73-42A17.42,17.42,0,0,0,79,413.42l39.76,31.78a17.84,17.84,0,0,0,23.68-2l8.4-8.65q8.94-9.49,18-19a191.62,191.62,0,0,0,55,15.91c2.52,12.6,5,24.9,7.52,37.41a18.22,18.22,0,0,0,6.38,10.66,16.79,16.79,0,0,0,12.6,3.61q15.11-1.81,30.31-3.4L301,477.57a17.38,17.38,0,0,0,15.37-18.22l-1-38a195.06,195.06,0,0,0,50.17-27.63l31.66,21a16.08,16.08,0,0,0,4.45,2.14,17,17,0,0,0,19.15-5.37l31.83-39.8a17.26,17.26,0,0,0-2-23.68L423,321.68a197.33,197.33,0,0,0,15.87-55l37.79-7.47a17.26,17.26,0,0,0,14.11-18.89l-5.67-50.8A17.51,17.51,0,0,0,467,174.23l-38.08.92A192.59,192.59,0,0,0,401.28,125l14.78-22.21,6.3-9.49a17.34,17.34,0,0,0-3.27-23.51L379.32,38a17.63,17.63,0,0,0-23.64,2l-7.89,8.4c-6.13,6.42-12.26,12.89-18.39,19.27a192.42,192.42,0,0,0-55-15.91l-7.52-37.45A17.63,17.63,0,0,0,249.08,0a13.52,13.52,0,0,0-1.81,0L196.89,5.66A17.3,17.3,0,0,0,181.4,23.79c.25,11.71.59,23.47.92,35.23v2.81a195.11,195.11,0,0,0-50.13,27.63l-31.66-21a17.76,17.76,0,0,0-23.6,3.27l-31.83,39.8a17.34,17.34,0,0,0,2,23.68l27.58,26.28a197.33,197.33,0,0,0-15.91,55l-5.63,1.13q-15.87,3.11-31.78,6.34A17.21,17.21,0,0,0,7.16,242.83l1.93,17c1.26,11.25,2.52,22.46,3.78,33.88A17.59,17.59,0,0,0,31,308.88l38.08-1A193.13,193.13,0,0,0,96.72,358q-6.26,9.53-12.6,19Zm4.62-116.85-34.93.88L43.9,260.34q-.25-2.77-.59-5.58l24.44-4.87,10-2a17.09,17.09,0,0,0,14.15-15.32,163.28,163.28,0,0,1,19.52-67.18,17.3,17.3,0,0,0-4.2-20.61l-7.81-7.43L81.85,120.57l12-15.11,20.78,13.9,8.4,5.58a17.55,17.55,0,0,0,21-.63,163.11,163.11,0,0,1,61.09-33.59,17.3,17.3,0,0,0,12-17.38L217,63c-.21-8.4-.42-16.79-.63-24.9L226.12,37l7.94-.88h1.47c2.35,11.46,4.62,22.88,6.89,34.22a17.34,17.34,0,0,0,15.28,14.4,165.59,165.59,0,0,1,67.18,19.44,17.34,17.34,0,0,0,20.66-3.95l24-25.19L384.7,87.15,365,116.54a17,17,0,0,0,.8,20.57,166.47,166.47,0,0,1,33.84,61.21A17.55,17.55,0,0,0,417,210h0l34.89-.88.8,6.89c.46,4.2.88,8.4,1.3,12.34l-28,5.58-6.55,1.3a17.17,17.17,0,0,0-14,15.37,163.74,163.74,0,0,1-19.65,67.18,17.26,17.26,0,0,0,4.2,20.53l6.51,6.17q9.45,8.94,18.89,17.93l-12.09,15.11L374.24,358a17.47,17.47,0,0,0-21,.63A163.41,163.41,0,0,1,292,392.43a17.59,17.59,0,0,0-11.84,17.42v6.59c.29,9.45.55,18.89.71,28.26l-13.44,1.55-5.75.67q-3.46-17.19-6.8-34.22a17.3,17.3,0,0,0-15.32-14.36,167.27,167.27,0,0,1-67.18-19.52A15.41,15.41,0,0,0,165,377a19.15,19.15,0,0,0-13.18,5.84l-24,25.19-15.2-12.13,19.65-29.39a17.17,17.17,0,0,0-.76-20.61,165.8,165.8,0,0,1-33.8-61.13A17.3,17.3,0,0,0,80.38,272.94Zm114.24,36,.76.63a88.17,88.17,0,0,0,82,13.48,86.45,86.45,0,0,0,31.07-144.14,88.8,88.8,0,0,0-81.7-21,86.45,86.45,0,0,0-32.16,151.15Zm-1.39-85.1a59.2,59.2,0,0,1,52.44-40.43h3.48A57.35,57.35,0,0,1,284.73,196a60,60,0,0,1,17.38,22.5,59.24,59.24,0,0,1-13,64.53,55.84,55.84,0,0,1-39.89,16.21,59.91,59.91,0,0,1-36.65-12.6,58.78,58.78,0,0,1-19.31-62.6Zm587.08,212a16,16,0,0,0,6.3,11.55,259.76,259.76,0,0,1,72.13,83.17,15.54,15.54,0,0,0,2.65,3.27,15.62,15.62,0,0,1-2.65-3.27,259.39,259.39,0,0,0-72.26-82.92,16,16,0,0,1-6.13-11.63ZM885.08,609.53a260.31,260.31,0,0,1-7.85,109.79,16.79,16.79,0,0,0,4.2,16,16.79,16.79,0,0,1-4.2-16,260.31,260.31,0,0,0,7.89-109.62Zm11.55-18.6a17.89,17.89,0,0,0-11.55,18.6,17.89,17.89,0,0,1,11.59-18.43Zm-34.34-56a19.19,19.19,0,0,0,16.79,3.65l59.24-14.15,14.15,42.36h0l-14.11-42.36-59.24,14.15a19.19,19.19,0,0,1-16.79-3.48ZM781.75,426.14l22.42-56.55-22.42,56.55a20.74,20.74,0,0,0-1.39,5.42,21.88,21.88,0,0,1,1.43-5.25ZM362.69,483.33,344.81,519l17.89-35.69,56.6,22.46a18.26,18.26,0,0,0,21.24-4.91,259.43,259.43,0,0,1,83.17-72,18,18,0,0,0,8-20.49l-12.6-52.06q6.21,26,12.6,52.1a17.93,17.93,0,0,1-8,20.49,259.3,259.3,0,0,0-83.13,72.09,18.35,18.35,0,0,1-21.29,4.91ZM584,391l-5.21-12.09,5.21,12a18.1,18.1,0,0,0,18.6,11.55,259.34,259.34,0,0,1,109.88,7.94,18.14,18.14,0,0,0,19.9-8.94l31.87-51.89,40,20h0l-40-20-31.87,51.89a18.14,18.14,0,0,1-19.9,8.94,259.3,259.3,0,0,0-109.88-7.94A18.1,18.1,0,0,1,584,391.08Zm-5.21-12.09-19.06-43.71h0ZM559.77,335.2l-42.41,14.11h0l42.36-14.11Zm-165.3,220a21.45,21.45,0,0,1,4.83,4.2,21.37,21.37,0,0,0-4.83-4.2l-51.94-31.83q26.07,16,52.06,31.83ZM886,739.48a21.54,21.54,0,0,1-4.83-4.2,21.5,21.5,0,0,0,4.83,4.2l51.85,31.83h0Zm31.87,71.8,19.94-40h0l-19.94,40-56.6-22.46a18.26,18.26,0,0,0-21.33,4.83,259.47,259.47,0,0,1-83.26,72.17,17,17,0,0,0-8.4,14.19,17,17,0,0,1,8.4-14.19,259.22,259.22,0,0,0,83.38-72.26,18.39,18.39,0,0,1,21.37-4.87ZM720.54,959.65,763,945.5h0l-42.45,14.15q-8.9-20.7-17.8-41.27l-6.34-14.65,6.34,14.65q9.07,20.61,18,41.27ZM763,945.5l-14.23-59.2a21.92,21.92,0,0,1-.55-6.26,20.61,20.61,0,0,0,.55,6.3ZM896.46,591.14,952.38,567h0Zm-493-15.91a259.68,259.68,0,0,0-10.29,82.12,259.22,259.22,0,0,1,10.29-82.12,16.79,16.79,0,0,0-4.2-15.91A16.79,16.79,0,0,1,403.46,575.23Zm91.23,73.56a146,146,0,0,1,80-131.29A146,146,0,0,0,494.7,648.79Zm80-131.29a154.51,154.51,0,0,1,67-15.45,154.34,154.34,0,0,0-67,15.41Zm.55,260.31a147.45,147.45,0,0,0,65,15,147,147,0,0,1-65-15.16Zm0,0a147,147,0,0,1-80.57-128.9,147,147,0,0,0,80.57,128.77ZM786,646.1a142.75,142.75,0,0,0-31.32-88.17c-2.86-3.61-5.88-7.14-9.07-10.5a153.46,153.46,0,0,0-28.93-23.85,139.39,139.39,0,0,0-75-21.37,154.42,154.42,0,0,0-67,15.45,145.27,145.27,0,0,0,65.5,275.22,149,149,0,0,0,76.25-21A146.57,146.57,0,0,0,786,646Zm-196.45,103a114.83,114.83,0,0,1-62.73-95.35,113.11,113.11,0,0,1,84-116.13,106,106,0,0,1,29.1-4.2,117.14,117.14,0,0,1,93.29,48.12,105,105,0,0,1,10.08,17.8,117.1,117.1,0,0,1-8.4,111.09,110.76,110.76,0,0,1-94.68,50A116.55,116.55,0,0,1,589.58,749.09ZM786,646a142.75,142.75,0,0,0-31.32-88.17A143.09,143.09,0,0,1,786.08,646a146.61,146.61,0,0,1-69.61,125.54A146.53,146.53,0,0,0,786,646ZM395.57,685.07h0a18.05,18.05,0,0,1-11.5,18.6,18.05,18.05,0,0,0,11.55-18.6Zm-63.65,41.1-3.82,1.64h0l3.82-1.64q26-11.29,52.15-22.46C366.64,711.18,349.3,718.65,331.92,726.17Zm63.65-41.1h0a259.39,259.39,0,0,1-2.44-27.71,259.13,259.13,0,0,0,2.48,27.71ZM498.81,868.59,476.39,925.1l22.42-56.51a21,21,0,0,0,1.43-5.42,21.92,21.92,0,0,1-1.39,5.37Zm1.39-5.46a16.79,16.79,0,0,0-6.26-16,259.34,259.34,0,0,1-72-83,18.14,18.14,0,0,0-20.49-8.06l-59.2,14.19L328.1,727.89l14.11,42.41,59.2-14.15a18.14,18.14,0,0,1,20.49,8A259.34,259.34,0,0,0,494,847.26a16.79,16.79,0,0,1,6.26,15.87Zm180,28.84a16.79,16.79,0,0,1,11.21,4.79A16.79,16.79,0,0,0,680.19,892a13.89,13.89,0,0,0-2.23,0,260.31,260.31,0,0,1-109.79-7.73,18.1,18.1,0,0,0-19.9,8.94L516.4,945.08l-40-20h0l40,20,31.87-51.89a18.05,18.05,0,0,1,19.9-8.94A260.31,260.31,0,0,0,678,892.14a14.77,14.77,0,0,1,2.18-.21Zm-40-131.37a116.55,116.55,0,0,1-50.68-11.5,114.83,114.83,0,0,1-62.73-95.35,114.91,114.91,0,0,0,62.77,95.31,116.8,116.8,0,0,0,50.63,11.5,110.8,110.8,0,0,0,94.72-50,110.72,110.72,0,0,1-94.68,50.09ZM527.11,636.41a115.33,115.33,0,0,1,83.68-99,106,106,0,0,1,29.1-4.2,117.14,117.14,0,0,1,93.29,48.12,105,105,0,0,1,10.08,17.8,105,105,0,0,0-10.08-17.76,117.06,117.06,0,0,0-93.29-48.12,105,105,0,0,0-29.05,4.2,115.33,115.33,0,0,0-83.68,98.88Zm216.1-36.95a117.1,117.1,0,0,1-8.4,111.09,117.22,117.22,0,0,0,8.44-111.09Z"/></g></g></svg>