<svg xmlns="http://www.w3.org/2000/svg" width="80" height="95" viewBox="0 0 80 95">
  <g id="Step1" transform="translate(-356 -2229)">
    <g id="Group_452" data-name="Group 452" transform="translate(-47.758 -95.061)">
      <path id="Path_575" data-name="Path 575" d="M-6204.4,682.9h-76.032c0-4.437-.485-15.282-.485-16.76,0-7.395.485-15.282,5.814-20.7,2.907-3.451,7.253-4.93,11.622-6.9a37.815,37.815,0,0,1,6.289-1.973l10.179,19.226c0-1.973.96-11.831-.482-14.789l-.49-1.972h10.649l-.486,1.972c-.968,2.958,0,12.324,0,14.789l9.694-19.226a37.8,37.8,0,0,1,6.292,1.973c4.361,1.478,8.711,3.45,11.622,6.407,5.325,5.423,5.814,13.31,6.3,20.7C-6203.913,666.631-6204.4,678.462-6204.4,682.9Z" transform="translate(6684.671 1736.162)" fill="#333"/>
      <ellipse id="Ellipse_32" data-name="Ellipse 32" cx="21.152" cy="21.532" rx="21.152" ry="21.532" transform="translate(421.341 2327.061)" fill="#333"/>
    </g>
    <g id="Group_621" data-name="Group 621" transform="translate(415.5 2228.5)">
      <rect id="Rectangle_125" data-name="Rectangle 125" width="3.991" height="20" rx="1.995" transform="translate(8.229 0.5)" fill="#e60000"/>
      <rect id="Rectangle_126" data-name="Rectangle 126" width="20" height="3.991" rx="1.995" transform="translate(0.5 8.229)" fill="#e60000"/>
    </g>
  </g>
</svg>
