<svg id="Layer_1" data-name="Layer 1" xmlns="http://www.w3.org/2000/svg" viewBox="0 0 1000 1000"><defs><style>.cls-1{fill:#e60000;}</style></defs><title>Trash_Red</title><g id="noun_Trash_2815015" data-name="noun Trash 2815015"><g id="Group_596" data-name="Group 596"><path id="Path_586" data-name="Path 586" class="cls-1" d="M749.32,863.18a73.18,73.18,0,0,1-72.78,73.57H324.86A73.21,73.21,0,0,1,252,863.18h0V271.93H189.32V863.18A136.25,136.25,0,0,0,324.86,1000H676.43A136.25,136.25,0,0,0,812,863.18V271.93H749.32Z"/><path id="Path_587" data-name="Path 587" class="cls-1" d="M663.86,148.46V81.32A80.64,80.64,0,0,0,583.9,0H416.79a80.64,80.64,0,0,0-80.65,80.64q0,.34,0,.68v67.14H142.86v63.25H857.14V148.46Zm-265-65.82A17.57,17.57,0,0,1,416,64.58H581.89a17.57,17.57,0,0,1,17.86,17.28q0,.4,0,.8v67.14H398.86Z"/><rect id="Rectangle_147" data-name="Rectangle 147" class="cls-1" x="571.32" y="285.5" width="63.25" height="533.14"/><rect id="Rectangle_148" data-name="Rectangle 148" class="cls-1" x="366.68" y="285.5" width="63.25" height="533.14"/></g></g></svg>