<svg id="Layer_1" data-name="Layer 1" xmlns="http://www.w3.org/2000/svg" viewBox="0 0 1000 1000"><defs><style>.cls-1{fill:#f9f9f9;}</style></defs><title>Upload_Light_Grey</title><path class="cls-1" d="M990.32,961V445.85a39,39,0,0,0-39-39h0a39,39,0,0,0-39,39V922H87.64V445.85a39,39,0,0,0-39-39h0a39,39,0,0,0-39,39V961a39,39,0,0,0,39,39H951.34A39,39,0,0,0,990.32,961Z"/><path class="cls-1" d="M452,757.71V67.82a48,48,0,1,1,95.91,0V757.71a48,48,0,1,1-95.91,0Z"/><path class="cls-1" d="M158.34,361.53a47.8,47.8,0,0,1,14-33.91L500,0,827.62,327.62a48,48,0,1,1-67.82,67.82L500,135.63,240.2,395.43a48,48,0,0,1-81.86-33.91Z"/></svg>