<svg id="Layer_1" data-name="Layer 1" xmlns="http://www.w3.org/2000/svg" viewBox="0 0 1000 1000"><defs><style>.cls-1{fill:#fff;}</style></defs><title>Website_White</title><path id="Path_109" data-name="Path 109" class="cls-1" d="M304.06,224.12a1250.58,1250.58,0,0,0,175.93,16V.26a450.75,450.75,0,0,0-104,16A786.67,786.67,0,0,0,304.06,224.12Z"/><path id="Path_110" data-name="Path 110" class="cls-1" d="M296.15,737.9A1333.56,1333.56,0,0,1,480,719.79V520H278A1501.54,1501.54,0,0,0,296.15,737.9Z"/><path id="Path_111" data-name="Path 111" class="cls-1" d="M520,759.88V999.74a450.81,450.81,0,0,0,104-16,761.8,761.8,0,0,0,72-207.87A1642.84,1642.84,0,0,0,520,759.88Z"/><path id="Path_112" data-name="Path 112" class="cls-1" d="M376,983.74a449.18,449.18,0,0,0,104,14V759.88a1250.56,1250.56,0,0,0-175.93,16A738.37,738.37,0,0,0,376,983.74Z"/><path id="Path_113" data-name="Path 113" class="cls-1" d="M256.06,256.12a859.06,859.06,0,0,1-161.92-48A500.32,500.32,0,0,0,.2,479.8H236.08A1553.72,1553.72,0,0,1,256.06,256.12Z"/><path id="Path_114" data-name="Path 114" class="cls-1" d="M703.85,264.15a1339.64,1339.64,0,0,1-183.9,16V480H721.84A1450.41,1450.41,0,0,0,703.85,264.15Z"/><path id="Path_115" data-name="Path 115" class="cls-1" d="M278,480H479.93V280.15a1104.17,1104.17,0,0,1-183.78-16A1450.41,1450.41,0,0,0,278,480Z"/><path id="Path_116" data-name="Path 116" class="cls-1" d="M623.92,16.26a592.8,592.8,0,0,0-104-16V240.12a1009.93,1009.93,0,0,0,175.93-16A786.67,786.67,0,0,0,623.92,16.26Z"/><path id="Path_117" data-name="Path 117" class="cls-1" d="M126.14,829.79a495.06,495.06,0,0,0,193.92,136,830.62,830.62,0,0,1-54-179.91A606.81,606.81,0,0,0,126.14,829.79Z"/><path id="Path_118" data-name="Path 118" class="cls-1" d="M318.06,34.25a488.3,488.3,0,0,0-197.9,141.94,679.63,679.63,0,0,0,143.93,42.26A960.36,960.36,0,0,1,318.06,34.25Z"/><path id="Path_119" data-name="Path 119" class="cls-1" d="M238.07,520H.2v6A498.38,498.38,0,0,0,58.16,736c0,2,2,2,2,4l6,12.07c2,2,4,6,6,8a41.84,41.84,0,0,0,8,12.07c2,4,4,6,6,10L98.3,800.21a812.93,812.93,0,0,1,157.94-52A1385.57,1385.57,0,0,1,238.07,520Z"/><path id="Path_120" data-name="Path 120" class="cls-1" d="M681.88,965.75a509.79,509.79,0,0,0,193.92-136,656.8,656.8,0,0,0-138-44A1128.2,1128.2,0,0,1,681.88,965.75Z"/><path id="Path_121" data-name="Path 121" class="cls-1" d="M761.81,520a1337.51,1337.51,0,0,1-20,225.86,697.2,697.2,0,0,1,157.94,52A484.32,484.32,0,0,0,999.68,520Z"/><path id="Path_122" data-name="Path 122" class="cls-1" d="M721.84,520H520v199.9A1082.3,1082.3,0,0,1,703.85,738,1501.55,1501.55,0,0,0,721.84,520Z"/><path id="Path_123" data-name="Path 123" class="cls-1" d="M879.78,176.19A538.65,538.65,0,0,0,681.88,34.25a955,955,0,0,1,56,183.9A1094.21,1094.21,0,0,0,879.78,176.19Z"/><path id="Path_124" data-name="Path 124" class="cls-1" d="M761.93,479.8H999.8v-6a496.93,496.93,0,0,0-93.94-265.64,859.11,859.11,0,0,1-161.92,48A1319.51,1319.51,0,0,1,761.93,479.8Z"/></svg>